<svg xmlns="http://www.w3.org/2000/svg" fill="none" viewBox="0 0 1724 2248">
  <g clip-path="url(#a)">
    <mask id="b" width="1724" height="2248" x="0" y="0" maskUnits="userSpaceOnUse" style="mask-type:luminance">
      <path fill="#F6F5E8" d="M0 0h1723.5v2248H0V0Z"/>
    </mask>
    <g fill="#F6F5E8" mask="url(#b)">
      <path d="M53.2 1165.7A133 133 0 0 1 4 1156a348 348 0 0 1-61.6-34.6c-7.3-4.7-15.4-8.8-23.3-12.8-12.4-6.3-25.3-12.8-33.6-21.5-10.6-11-14-29.7-9-50 5.3-21.6 18.7-39 34.3-44.1 6-2 11.6-3 17.2-3 5.1 0 10 .8 15 2.6 18.2 6.4 33.4 24.5 48.2 41.9 5.1 6 10.4 12.2 15.7 17.9a91 91 0 0 0 36.2 24.8 128 128 0 0 0 29.4 6c10 1.3 20.2 2.6 32.1 6.4 3.1 1 6.2 2.2 9.2 3.5 9 4 20 11.2 20.6 22.3.7 12.2-10.9 27-29.6 37.7-15.8 8.6-33.6 13-51.6 12.6Zm-43.2-9.1c13.8 4.9 28.7 7.5 43.1 7.5 19 0 36.6-4.3 50.9-12.4 18.2-10.4 29.5-24.6 28.8-36.2-.6-10.3-11-17.1-19.7-21-3-1.3-6-2.4-9-3.3-11.7-3.8-22-5-31.8-6.3-10.1-1-20.1-3-29.8-6.1a92.2 92.2 0 0 1-36.8-25.3 457.1 457.1 0 0 1-15.6-17.8c-14.7-17.4-29.9-35.3-47.7-41.6a43 43 0 0 0-14.4-2.5c-5.4 0-10.9 1-16.7 3-15 5-28 21.8-33.3 43-4.8 19.6-1.6 37.7 8.6 48.3 8.2 8.5 20.9 15 33.1 21.2 8 4 16.2 8.2 23.5 13a347 347 0 0 0 66.6 36.4h.2v.1Z"/>
      <path d="M78.1 1147.3c-2.8 0-5.5-.5-8.1-1.5-5.5-2-5.3-4.7-5-7.6 0-1.5.1-3.1-.4-5-.7-2.2-1.8-4.1-2.9-6-2-3.6-4-7-3-12.3.6-3.9 3-10.4 6.5-12.5 3.2-2 9.1-3.2 13.5-4.1l1.9-.4c2-.5 4-.7 6-.7a29 29 0 0 1 17.1 6.2l.8.5c7.9 5.6 15.2 11 13.6 22.2-.4 2.9-2.3 5.4-5.7 7.8a61 61 0 0 1-10.2 5.2h-.2l-4.7 2.3c-5.5 2.9-12 5.9-19.2 5.9Zm8.5-48.5c-1.8 0-3.7.2-5.7.7l-1.9.4c-4 .8-10 2-13 3.9-3 1.8-5.2 8-5.8 11.4-.8 4.7 1 7.8 2.9 11.2 1.1 2 2.3 4 3 6.4.7 2.1.5 4 .4 5.5-.2 3.1-.2 4.5 4 6 2.4.9 5 1.3 7.6 1.3 6.9 0 13.4-3 18.4-5.7l5-2.3c3.3-1.4 7-3 10-5 3-2.1 4.7-4.3 5-6.7 1.5-10.3-5.2-15.1-13-20.6l-.7-.6a27 27 0 0 0-16.2-5.9Z"/>
      <path d="M47.3 1184a147 147 0 0 1-55-10.6 368.2 368.2 0 0 1-66.5-37.5c-7-4.6-14.8-8.6-23-12.8-14-7-28.2-14.3-38.4-25-13.8-14.7-18.3-38.6-12-64.1 6.6-26.9 23.8-48.7 44-55.6a70 70 0 0 1 22-3.9c32.3 0 55 27.2 75 51.2 5.1 6.2 10.4 12.3 15.9 18.3 22 23.7 39.2 25.9 61 28.5 10.4 1.3 22.3 2.8 35.7 7 3.9 1.3 7.5 2.7 10.9 4.2 22.7 10.2 28 24.1 28.6 34 1 18-13 37-37.2 51.2a121.3 121.3 0 0 1-61 15.2v-.1ZM-81.5 976.2c-6.9 0-14.2 1.3-21.6 3.9-19.6 6.6-36.5 28-43 54.4-6.1 25-1.8 48.3 11.7 62.5 10 10.5 24.1 17.8 37.9 24.7 8 4 16.2 8.3 23.2 13A367 367 0 0 0-7 1171.9c17.3 7 35.8 10.6 54.4 10.6a120 120 0 0 0 60.2-15c23.3-13.6 37.3-32.6 36.4-49.7-.7-13.6-10.3-24.8-27.7-32.7-3.5-1.5-7-2.9-10.6-4a184.2 184.2 0 0 0-35.5-7c-21.2-2.6-39.5-4.8-62-29-5.3-5.8-10.5-12-15.9-18.4C-28.6 1001.8-50 976-81.4 976l-.1.2Z"/>
      <path d="M124.7 1243.2c-7.8 0-14.7-2.8-21.4-5.6-4.3-1.7-8.4-3.4-12.5-4.3-15.3-3.5-34.3-12.7-54.4-22.4-15.4-7.4-31.2-15-47.8-21.4a378.5 378.5 0 0 1-66.7-35.9c-6.8-4.3-14-8.1-21.8-12.2-13.9-7.4-28.3-15-39.2-25.4a82.5 82.5 0 0 1-26-44.4c-3.2-16 2.2-32.4 8.5-47.8 11-26.5 28-46 46.9-53.4 7-2.8 14.5-4.2 22-4.2 9.5.2 19 2 28 5.2 18.2 6 34.2 17 47.4 27 5.3 4 10.5 8.4 15.6 12.6 9.3 7.7 18 15 27.5 20.7a123 123 0 0 0 34.4 13.3l3.6 1c5.2 1.3 10.5 2.3 15.8 3 5 .8 10.3 1.7 14.8 2.8 6.1 1.6 12.6 3 19.5 4.3h.2c16.7 3.4 35.6 7.3 52.8 16.4 5 2.6 9.4 5.7 13 9.1 8 7.8 8.6 17 9.1 25.1l.4 4.5a79 79 0 0 1-4.4 30v.5a333 333 0 0 1-6.1 22.3l-.2.1c-1 3.3-2 6.7-2.8 10-6.8 24.7-16.8 51.8-40.2 64.8a32.6 32.6 0 0 1-16 4.3ZM-87.6 967.8c-7.5 0-14.5 1.4-21.6 4.1-18.4 7.3-35.2 26.4-45.9 52.5-6.2 15.1-11.5 31.3-8.4 47a80.9 80.9 0 0 0 25.5 43.5c10.8 10.2 25 17.7 39 25 7.3 4 15 8 21.8 12.3 21 13.4 41.8 26.2 66.4 35.8 16.7 6.4 32.5 14 47.9 21.5 20 9.6 39 18.7 54 22.2 4.4 1 8.6 2.7 12.8 4.4 6.9 2.8 13.4 5.5 20.7 5.5a31 31 0 0 0 15.3-4.2c22.8-12.7 32.7-39.4 39.4-63.8l2.9-10c1.4-4.8 2.8-9.7 4-14.4l2.2-8.1v-.3c3-10.5 5.4-19.5 4.4-29.4l-.4-4.6c-.6-8.2-1.2-16.7-8.7-24-3.8-3.6-8-6.6-12.6-9-17-8.9-35.8-12.7-52.4-16-7-1.5-13.5-2.8-19.7-4.4-4.4-1.2-9.4-2-14.6-2.8-5.5-.8-11.2-1.7-16-3l-3.7-1c-11.3-3.1-23-6.3-34.8-13.5a258.1 258.1 0 0 1-27.6-20.8l-.2-.2c-5-4.1-10.2-8.4-15.5-12.4-13-9.9-28.8-20.8-47-26.8a88 88 0 0 0-27.3-5l.1-.1Z"/>
      <path d="M157.7 1313.2c-12.7 0-22.9-9.4-31.9-17.7-4.3-4.3-9-8.1-14.2-11.4-8.7-4.9-19.2-12.7-31.4-21.7-26-19-58.1-42.8-95.1-56.8a390 390 0 0 1-67-34.3c-6.4-3.8-13-7.5-19.5-11a230 230 0 0 1-41.3-26.3c-17.6-15.2-30.6-29.3-37-49.2-6-18.7 1.7-37.6 9-55.8l.6-1.2c6.2-15.3 24-52.4 54.3-65.4 7.2-3 14.5-4.6 22.5-4.6 11.4 0 22.5 3.2 33.2 6.3l1.2.3c20.5 6 39.4 15.8 56.9 25.5 5.6 3.1 11.2 6.5 16.6 9.8 12.7 7.6 24.7 14.8 37.6 19.7 13.2 5 26.7 6.6 39.8 8l12.6 1.6c4.3.6 9.4 1 14.8 1.3 9 .5 18.5 1.1 25.7 3.3 7.2 2.1 15 4 23.4 6 22.9 5.6 48.8 12 69.1 25.7 6.2 4.2 11.2 9 15 14.2 8.8 12.1 5 26.8 1.8 38.5l-1.9 7.6c-2.1 10-6.8 19-11.6 28.5-4 7.5-8 15.2-10.8 23.9-4 11.2-7.4 22.7-10 34.3l-.6 3.5c-5.7 30-14.2 75.5-46.4 93a32 32 0 0 1-15.4 4.3v.1Zm-251-353.8c-7.7 0-14.8 1.5-21.8 4.5-29.9 12.8-47.4 49.4-53.5 64.5l-.5 1.2c-7.3 18-14.9 36.6-9 54.7 6.2 19.5 19 33.5 36.4 48.5 12.7 10 26.5 18.8 41 26 6.6 3.6 13.3 7.3 19.6 11.1a396.5 396.5 0 0 0 66.7 34.1c37.3 14.1 69.6 38 95.5 57 12.2 9 22.7 16.8 31.3 21.7 4.9 2.8 9.6 7 14.5 11.6 9.2 8.5 18.7 17.2 30.8 17.2 4.8 0 9.6-1.4 14.6-4.1 31.5-17.1 40-62.1 45.6-92l.6-3.4a278 278 0 0 1 10-34.5c3-8.8 7-16.6 10.9-24.1 6.4-11 10.9-23 13.3-35.6v-.2c3.3-12 6.9-25.6-1.4-37.2-4-5.4-9-10-14.6-13.8-20-13.6-45.9-19.8-68.6-25.4-8.3-2-16.2-3.9-23.5-6-7-2.2-16.3-2.7-25.3-3.3-5-.2-10-.7-14.9-1.3l-12.6-1.5c-13.7-1-27.1-3.7-40.1-8.1-13.1-5-25.7-12.6-38-20l-16.5-9.7A275 275 0 0 0-59.3 966l-1.2-.4a119.4 119.4 0 0 0-32.8-6.2Z"/>
      <path d="M188.7 1383.5c-17.8 0-30.3-16.5-41.3-31-5-6.8-10-13.2-14.9-17.5-5.7-5-12.5-11.6-20.3-19.3l-.2-.2c-29.8-29.1-74.8-73.2-130.5-93.8a440 440 0 0 1-67.3-32.7l-14.6-8.2h-.1c-15.8-8.8-32-17.8-45.8-28.8l-.7-.6c-19.4-15.5-37.8-30.2-47.4-53.5-8.2-20.1.1-40.5 8.2-60.2l.2-.4 2.2-5.5c9.1-22.5 29.2-62.4 62-77.4 7.4-3.4 15-5 23.1-5 11 0 21.6 2.8 33 6l7.7 2c23.1 6 44.6 14.8 66.3 24 6 2.5 11.9 5.2 17.6 7.8 16.2 7.3 31.4 14.2 47.8 18 15.5 3.6 31.3 4 46.7 4.2 6.6.2 13.4.3 20.1.7 3.5.2 7.4.2 11.2.2h7.9c10.6 0 22.6.3 31.2 3 8.4 2.8 17.8 5.3 27.7 8 29 7.7 61.6 16.5 84.8 34.8 7.3 5.7 13 12.2 17 19.2 9.8 17 1.1 37-5.8 53l-4 9.5c-4.9 11.5-11 22.3-18.5 32.3a166 166 0 0 0-19.7 34.2 219 219 0 0 0-14 52.2l-.2 1.1c-5.4 39.2-13.6 98.3-52.6 119.2-5.1 3-10.9 4.5-16.8 4.7ZM-98.7 951a53 53 0 0 0-22.5 4.9c-32.2 14.7-52 54.3-61 76.5l-2.2 5.2-.2.7c-8 19.4-16.3 39.5-8.2 59 9.4 22.9 27.6 37.4 46.8 52.9l.7.5c13.7 11 29.9 20 45.6 28.6l.5.3 14.2 8a422 422 0 0 0 67 32.6c56 20.7 101.3 64.9 131.2 94.2 7.8 7.7 14.7 14.4 20.4 19.4 5 4.4 10 10.8 15.1 17.7 11.4 15 23 30.4 39.8 30.4a35 35 0 0 0 16.3-4.5c38.2-20.5 46.3-79.2 51.7-118l.1-1 1.1-8c2.3-15.5 8.2-32 13-44.7 5-12.8 12.6-23.8 19.9-34.5 7.2-10.6 14-20.5 18.4-32l4-9.5c6.8-15.8 15.3-35.4 6-51.5a66 66 0 0 0-16.7-18.8c-23-18-55.4-26.8-84.1-34.5-10-2.7-19.4-5.3-28-8a112 112 0 0 0-30.9-3h-7.6c-3.8 0-7.8 0-11.3-.2-6.6-.4-13.4-.5-20-.6-15.5-.4-31.4-.7-47-4.3a257.3 257.3 0 0 1-48-18l-.3-.2L7.7 983c-21.7-9.1-43-17.9-66-23.9l-8-2a120 120 0 0 0-32.4-6v-.1Z"/>
      <path d="M219 1454c-22.7 0-38-25.2-50.2-45.5-4.5-8-9.6-15.5-15.3-22.7-3.9-4.3-8.2-9.6-13.3-15.6-32.8-39.5-87.7-105.4-162.3-132.4-21.6-7.8-43.7-18-67.6-31.1a505 505 0 0 1-67.5-42.2c-20.8-15.4-40.5-29.9-51.8-53.5-10.6-22-1.2-44.3 7.8-65.9l.3-.6 3.6-8.7c10.4-25.9 33.2-72 69.4-89.4a54.6 54.6 0 0 1 24.1-5.5c11.3 0 22.3 3 34 6.2l12.8 3.4a972.3 972.3 0 0 1 75 22.2l.7.2c6.4 2 12.7 4.3 18.8 6.4A289 289 0 0 0 95.3 995c8 1 17 1.6 27.4 1.6 8.8 0 17.7-.4 26.2-.7h.5c8.3-.4 17-.7 25.5-.7h2.1c4.2 0 9.3-.3 14.6-.5h.2c6.4-.3 13.1-.6 19.6-.6 11.1 0 19 1 25 3 10.6 3.5 21.3 6.7 32 9.6 34.9 10 74.5 21.4 100.6 44.3 7.9 6.7 14.3 15 19 24.2 10.7 21.6-2.8 47.2-13.6 67.7l-5.8 11a203 203 0 0 1-25.6 37.4 185 185 0 0 0-28.4 43.3c-9 21.6-14.3 39.4-16 54.3l-1.6 13.7c-5.2 48.5-13 121.7-59 146.2-6.6 3.5-13 5.3-19 5.3v-.1Zm-322.8-511.4a53 53 0 0 0-23.4 5.2c-35.7 17.3-58.3 63-68.6 88.6l-3.9 9.3c-8.9 21.3-18.1 43.3-7.8 64.6 11.1 23.2 30.6 37.6 51.3 53l7.2 5.3a500.4 500.4 0 0 0 60 36.6c23.9 13.1 46 23.3 67.4 31 75 27.2 130.1 93.4 163 133l.2.2 13 15.4c5.2 5.9 10.2 14.1 15.5 22.9 12.7 21 27.1 44.7 49 44.7 5.7 0 11.8-1.7 18-5 45.4-24.2 53.2-96.8 58.3-145l1.5-13.6c1.8-15.1 7-33 16.2-54.8 6.8-16.4 17.9-30.3 28.6-43.7 9.3-11.6 19-23.6 25.5-37 1.7-3.6 3.7-7.4 5.7-11.2 10.7-20.2 24-45.3 13.7-66.2a76.7 76.7 0 0 0-18.6-23.7c-26-22.6-65.3-34-100-43.9-10.8-3-21.5-6.2-32.1-9.7a80 80 0 0 0-24.7-2.9c-6.6 0-13.4.3-19.4.6l-2 .1c-4.3.2-8.5.4-12.1.4H176c-9 0-18.2.4-27 .7-8.5.4-17.4.8-26.3.8-10.4 0-19.5-.6-27.6-1.6-20-2.7-39.4-9.4-58.1-15.8-6.2-2.2-12.5-4.4-18.8-6.4l-.7-.2c-28.8-9.9-58-18.4-87.7-25.6a127.7 127.7 0 0 0-33.6-6.1Z"/>
      <path d="M249.1 1524.6a34 34 0 0 1-10.2-1.6c-21.8-6.8-36.3-34.6-49-59.1-6.3-13-13.9-25.4-22.5-37l-.7-1c-31.9-45-98.4-138.7-192.4-172a529.3 529.3 0 0 1-127.8-66c-4-2.9-8-5.6-12-8.3-23-15.8-44.8-30.7-58.1-55.5-13-24-2.5-48.5 7.6-72.1l.2-.5c1.7-3.8 3.3-7.8 4.9-11.7 14.3-35.9 39.3-82.7 77-101.5a55 55 0 0 1 25.1-5.9c11.8 0 23.3 3.2 35.5 6.6 5.7 1.7 11.4 3.2 17.2 4.5 21.2 4.7 42.3 10 62.8 15.3H7l41 10.6c23.2 6.2 45.1 12 68.9 13.4 4.3.3 9 .4 13.9.4 15.6-.2 31.2-1 46.7-2.6 11.5-1 23.3-2 34.9-2.3 4.5-.2 10-.6 15.7-1.1 9.2-.7 19.6-1.6 29.3-1.6 10.7 0 18.8 1 24.7 3.1 10.8 4 23 7.6 36 11.4h.1c52 15.7 116.6 35 137.6 82.9 11.6 26.6-7 57.6-21.8 82.6l-7.3 12.5a247.4 247.4 0 0 1-32.7 42.8c-14 15.9-28.5 32.3-37.1 52a221 221 0 0 0-20.7 82.4c-5 57.8-12.5 145.2-65.8 173.4a45.8 45.8 0 0 1-21.3 5.9Zm-357.8-590.5c-8.8 0-16.8 1.9-24.5 5.7-37.2 18.6-62 65-76.2 100.7l-5 12-.1.1c-10.4 24.4-20.2 47.4-7.7 70.7 13.1 24.5 34.7 39.3 57.6 55 3.7 2.5 8 5.3 12 8.2 39.1 27.6 82 49.7 127.4 65.8C69.3 1286 136 1379.8 168.1 1425l7.7 10.8c5.1 7.1 10.2 17 15.6 27.3 12.5 24.3 26.8 51.8 48 58.4 3.2 1 6.5 1.5 9.8 1.5 6.5 0 13.2-1.9 20.4-5.7 52.6-27.8 60-114.7 65-172.1 1.5-28.8 8.6-57 20.8-83 8.7-19.9 23.3-36.4 37.4-52.4 11.8-13.3 23.9-27 32.5-42.5 2.2-4 4.7-8.1 7.3-12.5 14.7-24.7 33-55.4 21.7-81.2-20.7-47.1-85-66.4-136.6-81.9-13-3.8-25.2-7.5-36.2-11.4a75 75 0 0 0-24-3c-9.7 0-20 .8-29.2 1.5-5.8.5-11.3 1-15.9 1-11.5.5-23.3 1.5-34.7 2.4h-.1a564.9 564.9 0 0 1-46.8 2.6c-5 0-9.6-.1-14-.4-24-1.4-47-7.5-69.1-13.4l-19-5-22.3-5.6h-.1c-20.5-5.3-41.6-10.6-62.7-15.3-6-1.3-11.7-3-17.3-4.5-12-3.3-23.4-6.5-35-6.5Z"/>
      <path d="M251.6 1605.4c-34.3 0-58.3-29.8-79.5-56-8.3-10.4-16.2-20-24.2-27.6-8-7.5-17-16.7-26.6-26.5l-.2-.2c-13.8-14.1-29.4-30-47-46C28 1406.6-28 1359.5-93.4 1330.8a97.7 97.7 0 0 1-35.5-24.7c-3.3-3.7-6.5-7.6-9.5-11.3a147.7 147.7 0 0 0-23.3-24.8c-9.7-7.6-21.6-14-33.2-20.3-3.8-2-7.7-4-11.4-6.2l-12.2-6.7c-16.3-8.8-33-17.8-46.7-30.9-19-18.2-42.4-43.3-55.4-75.7-1.4-3.2-2.6-6.8-4-11-9.6-29.2-.7-58.8 8-87.3l4-13.7a269 269 0 0 1 23.2-52.8c3.6-6.7 7.1-13.9 10.8-21.5 16.2-33.4 34.5-71.2 69.8-78l.3-.2a47 47 0 0 1 29.4-7.6c12.5 2.2 24.4 7 37 11.9 6.2 2.4 12.6 5 19.1 7.2 19.3 6.6 39 13.4 60.1 18.8 11 2.8 22.8 5.4 36.1 8.1l8.1 1.7c30.8 6.5 61.8 12.2 93 17 19.4 2.9 39 4.4 57.9 6 17.4 1.3 35.3 2.7 52.7 5.1 6.5 1 14 1.6 21.8 2.3 19.7 1.8 42 3.8 58.1 10.3 7.5 3 15.8 6 27 10l16.5 5.8 1.2.5a809.4 809.4 0 0 1 91.3 36.1c27.9 13.7 58.8 30.7 73.3 57.5 13.7 25.4 2 55.4-11.1 84-3.6 7.8-7.3 15.3-10.9 22.5l-.1.3-4.5 9.1A249.2 249.2 0 0 1 417 1219c-17.6 22.2-35.7 45-43.8 72.8-6.9 23.6-15.4 53-19.3 80.2-1 6.6-1.9 13.5-2.8 20.6l-.2 1.4c-4.8 34.3-10 73.2-17.7 110.4-7.6 36.8-22.6 87.1-63.8 98.5a67 67 0 0 1-17.8 2.6v-.1Zm-460-737.9c-34.6 6.6-52.8 44.1-68.8 77.2-3.5 7.3-7 14.5-10.8 21.6-12 20.8-21.1 43-27.2 66.2-8.6 28.3-17.4 57.6-8 86.2 1.2 3.7 2.5 7.4 4 11 10.2 25.5 26.7 48 55 75.2 14 12.2 29.6 22.5 46.4 30.6l.3.2c7.7 4 15.4 8.3 23 12.6l.3.1c11.6 6.3 23.6 12.7 33.4 20.4 9.6 7.7 16.7 16.5 23.6 25 3 3.8 6.1 7.7 9.4 11.4a96.1 96.1 0 0 0 35 24.2c65.5 28.9 121.7 76 168 118.4 17.7 16.1 33.3 32.1 47.1 46.2l.2.2c8.7 9 17.5 17.8 26.5 26.5 8.1 7.5 16 17.3 24.3 27.6 21 26 44.8 55.4 78.5 55.4 5.6 0 11.4-.8 17.2-2.4 40.3-11.2 55-60.9 62.6-97.3 7.6-37.2 13-76 17.6-110.2l3.1-22c4.6-27.2 11-54 19.3-80.4 8.2-28.2 26.5-51.2 44.1-73.4a247 247 0 0 0 34.6-55.1l.3-.6c3.3-6.8 7.2-14.5 10.8-22.5 13-28.2 24.5-57.8 11.2-82.5-14.3-26.4-45-43.2-72.6-56.8a828.8 828.8 0 0 0-91-36l-17.8-6.3c-11.3-4-19.6-7-27.1-10.1-16-6.4-38-8.4-57.6-10.1h-.2c-7.9-.8-15.3-1.4-21.7-2.3-17.3-2.4-35.1-3.8-52.4-5.2h-.2c-19-1.5-38.5-3.1-58-6-31.7-4.6-61.5-10.6-93-17l-8.2-1.7c-12.1-2.4-24.2-5-36.2-8.1-27-7.2-53.4-16-79.4-26.1a196 196 0 0 0-36.6-11.8 43.5 43.5 0 0 0-28.5 7.6l-.5.2v-.1Z"/>
      <path d="M258 1687.5c-42.6 0-76-29.2-105.4-55-10.8-9.3-21-18.2-31.3-25.7a1082.1 1082.1 0 0 1-42.4-33l-.2-.2c-15.4-12.3-31.2-25-48.4-37.7l-25.8-19.3-.9-.6c-49.2-37-105-78.8-164.8-108.2-21.5-10.5-34.6-22.1-43.6-38.6-3-5.6-5.8-11.5-8.5-17.3-6.5-14.1-13.2-28.6-25.2-40.4-12.4-12-29.6-21-46.4-29.9l-.5-.2-12.4-6.7c-6.6-3.7-13.5-7.1-20.2-10.5-21.1-10.6-43-21.6-59-40a212.2 212.2 0 0 1-46.2-96.5c-1-4.2-1.7-8.3-2.5-12.7v-.4c-7-37.3 1.6-75.2 9.8-111.7l1.4-6.1c5.4-24 16.2-44.3 27.6-65.8l2.3-4.3c6-11.2 11.3-24.3 17-38.1 17.6-43.1 37.6-92 83.7-95 .2 0 .4 0 .5-.2A45.1 45.1 0 0 1-251 784a272.8 272.8 0 0 1 40 17.3h.2a566 566 0 0 0 20.8 10c23.6 10.6 44 18.8 66.3 24.5a470 470 0 0 0 40.9 8.3c12.3 2 24.7 4 36.7 5.7h.2c25.3 3.8 51.4 7.7 77.6 13.3 14.3 3.1 28.8 6 42.7 8.7l.6.1c28.4 5.6 55.2 10.9 82.2 18 8.2 2.2 17.2 4.2 26.6 6.4 22 4.9 44.6 10 63.5 18.2 9 3.8 18.8 7.8 31 12.6l22 8.6c38 14.2 75.3 30 111.9 47.5 30 14.4 63.9 30.7 80 57 18.4 29.6 4.6 65.4-7.6 97l-.5 1.3c-5.4 14-11.1 27.2-16 38.4-8 18.4-18.9 36.7-33 55.8-20.3 27.4-39 54.8-45.5 88a1541 1541 0 0 1-7.8 37.3c-4.2 19.3-8.4 39.3-11.7 58.7-7.8 46-17 99.4-26.1 151l-1 5.6c-9.3 53.2-25.4 108.3-74.5 113.7-3.4.4-7 .6-10.4.6l-.1-.1Zm-541.3-892.3c-45.4 2.6-65.3 51.2-82.8 94-5.7 13.9-11 27-17 38.2l-2.3 4.3c-11.4 21.4-22.2 41.6-27.5 65.4l-1.4 6.1c-8.2 36.4-16.7 74.1-9.9 111v.3l2.6 12.8c8 38 23.5 70.2 45.9 95.9 15.8 18.1 37.5 29 58.5 39.6 6.6 3.3 13.5 6.8 20.2 10.5l12.9 6.9c16.8 8.8 34.2 18 46.7 30.2 12.2 11.9 19 26.5 25.6 40.7 2.6 5.9 5.4 11.6 8.4 17.3 8.9 16.2 21.7 27.6 43 38 59.8 29.4 115.7 71.3 165 108.2l.1.2 26.5 19.8c17.4 12.8 33.3 25.6 48.7 38 15 12 29.2 23.4 42.4 33 10.4 7.5 20.6 16.4 31.4 25.8 30.6 26.8 62.4 54.5 104.1 54.5 3.5 0 7-.2 10.6-.6 48-5.3 63.8-59.7 73-112.3l1-5.7c9-51.6 18.3-105 26-151 3.3-19.3 7.6-39.3 11.8-58.7l.2-.8 7.6-36.5c6.5-33.6 25.3-61 45.7-88.6 14.1-19 24.9-37.2 33-55.6a901.3 901.3 0 0 0 15.9-38.2l.5-1.3c12-31.3 25.7-66.7 7.8-95.7-16-25.8-49.7-42-79.4-56.3l-8.9-4.2a1315 1315 0 0 0-102.8-43.2l-.6-.3-21.5-8.4c-12.2-4.7-22-8.7-31-12.6-20.5-7.9-41.6-14-63.2-18.1-9.5-2.2-18.5-4.2-26.8-6.4-27.1-6.9-54.5-12.9-82-18h-.5c-14.3-2.8-28.6-5.8-42.9-8.8-25.6-5.2-51.4-9.6-77.3-13.2l-37-5.7c-13.8-2.2-27.5-5-41-8.4-22.5-5.7-42.9-14-66.6-24.6-7-3.2-14-6.5-21-10-12.8-6.8-26-12.5-39.7-17.2a49 49 0 0 0-5.3-.4c-9.9 0-17.6 4-26.2 10h-.4l-.1.1Z"/>
      <path d="M267.6 1771c-52.7-.8-96.2-29.4-138.2-57-12-8-23.2-15.3-34.7-22.1-18-10.7-36.3-22.8-55.8-35.5-17-11.1-34.5-22.6-52.6-33.7-27.5-17.2-54.6-35-81.3-53.6-42.9-29.3-87.3-59.6-133.9-84.2-27.7-14.7-42.6-30-51.6-52.7-3-7.6-5.6-15.8-8-23.6-6-19.6-12.3-39.8-26.7-55.6-14.8-16.3-38.2-28.5-58.9-39.2l-.2-.1c-5.2-2.8-10.2-5.3-15-8-8.8-4.8-18-9.2-27.1-13.5-26.4-12.6-53.7-25.6-72.3-49.7-27.7-36-34.4-84.3-37-117.5l-.6-7.6-.6-7.8c-3.6-47.6 3.3-94.6 10.6-134.4 5.3-28.8 17.8-52.3 31.1-77l.4-.7 5.1-9.7a418.4 418.4 0 0 0 21.3-51.9c19.5-53.8 41.6-114.7 99-114.7h.6c.2 0 .4 0 .6-.2 9.9-7.6 17.7-12 28.3-12 2.3 0 4.7.2 7.2.7h.3a382 382 0 0 1 43 22.7c7.4 4.2 14.9 8.6 22.4 12.6 22.8 13 47.2 23.3 72.6 30.3 13.6 3.5 28.1 6.2 45.6 8.5 12 1.7 24 3 35.8 4.3h.1c30.1 3.4 61.2 6.8 92 15l6.1 1.7c46.9 12.5 91.1 24.2 134.3 40.8 12 4.6 24.7 8.8 38 13.3 21.1 7 42.9 14.3 62.4 23.3 11 5 22.7 10 34.9 15.1l25.9 10.9h.2c38 16 77.4 32.4 115 50.5 6.3 3 13 6 20.1 9.2 31.5 14.2 67.1 30.2 84.5 55.7 21.8 32 8.6 71.5-3 106.3l-2.3 6.5c-5 15-10.5 30-16.4 44.7-9.3 22.9-21 44.2-35.8 65.2-25 35.6-42.5 66.7-47.1 103.1-3.5 27.6-9 56.4-14.4 84.2l-5.3 27.7c-3 16-6.2 32.2-9.6 49.3l-.2 1.3c-8.4 42.6-17.1 86.6-23.6 130.3-6.9 45-19.6 128.7-84.3 128.7h-.9v.1ZM-359.3 722.7c-56.3 0-78.2 60.4-97.5 113.6-7 19.3-13.6 37.4-21.4 52.2l-5.5 10.1v.2c-13.2 24.7-25.7 48-31 76.6-7.3 39.6-14.2 86.5-10.5 134l.6 8.4.5 7c2.6 33 9.3 81 36.7 116.6 18.3 23.8 45.5 36.7 71.7 49.2 9 4.4 18.4 8.8 27.2 13.6 4.8 2.7 9.8 5.2 15 8h.2c20.7 10.8 44.3 23 59.3 39.6 14.6 16.1 20.9 36.4 27 56.1 2.4 7.8 5 16 8 23.6 8.8 22.4 23.6 37.4 50.9 51.8 46.6 24.6 91 55 134 84.3 28 19 54.4 37.1 81.3 53.6 18.1 11.2 35.6 22.6 52.5 33.7h.1c18.3 12.2 36.9 24 55.7 35.4a886 886 0 0 1 34.8 22.2c41.8 27.5 85 56 137.3 56.7h1c63.2 0 75.8-82.9 82.5-127.4 6.5-43.6 15.2-87.7 23.6-130.3l.3-1.4 9.6-49.2 5.2-27.7c5.4-27.8 11-56.6 14.4-84 4.7-36.8 22.4-68.1 47.4-104a313.8 313.8 0 0 0 35.6-64.8c6-14.7 11.5-29.6 16.5-44.6l2.2-6.5c11.5-34.5 24.6-73.6 3.3-104.9-17.2-25.1-52.6-41-83.9-55-7-3.3-13.8-6.3-20-9.3-37.6-18-76.9-34.5-115-50.4l-26.2-11c-12-5-23.8-10.1-34.9-15.1-19.5-9-41.2-16.2-62.2-23.3h-.2c-13.3-4.5-25.9-8.7-37.9-13.3-43-16.5-87.3-28.3-134-40.8l-6.3-1.6c-30.6-8.2-61.7-11.6-91.7-15-11.7-1.3-23.9-2.6-36-4.3-17.5-2.3-32-5-45.7-8.5-27.6-7-51.4-18.8-73-30.5-7.6-4-15.1-8.4-22.4-12.6-13.8-8-28-16.3-42.7-22.5h-.2c-2.5-.5-4.7-.7-6.9-.7-10.2 0-17.6 4.3-27.8 12l-.2.2h-1.3Z"/>
      <path d="M275.7 1855.5c-3 0-6-.2-9-.5-61.8-7-117.8-36.2-172-64.4h-.1c-31.1-15.7-62-32-92.4-48.9-19.8-11-39.8-21.7-59.8-32.2-43.4-22.4-86.3-50.7-127.7-78.1-36-23.8-73.3-48.4-111.3-69.5-34-18.9-50.6-37.6-59.6-66.6-3-9.7-5.4-20.1-7.6-30.1-5.6-25-11.4-50.7-28-70.7-17.4-20.6-46-35.4-71.4-48.5h-.2l-17.2-9.1c-11-6-22.7-11.3-34-16.5-31.9-14.7-64.7-29.7-85.7-59.7-26.3-37.5-29-88.6-27.9-138.3l.3-17.6c.1-41.6 1.4-96.3 9.8-151.2 5.3-34 19.8-60.9 35.2-89.4l.3-.5 7.8-14.7c9.5-18 17-40.8 25.1-65 21-63.5 45-135.3 111-135.3 1.6 0 3.3 0 5 .2l.6-.3c9.6-8 18-14 30.2-14 2.7 0 5.5.2 8.5.8l.3.1a518 518 0 0 1 46.7 28.3l.2.2c7.6 5 15.4 10 23.2 14.9 21.7 13.4 48 28.1 79 36 14.8 3.8 30.8 6.6 50.3 8.8 12.7 1.4 25.5 2.4 37.9 3.4 33.9 2.7 69 5.6 103.2 16.1 52 16.2 102.8 35.2 155.4 58.2l32 13.7.6.3c25.8 11 52.5 22.4 78.2 34.6 13 6.1 26 12.1 38.7 17.7l29.4 13c42.9 18.7 85.5 38 127.8 57.9 9.5 4.4 19.1 8.5 28.8 12.5 34 14.2 72.5 30.3 91.4 56 25.4 34.6 12.4 77.9 1 116v.2l-3.3 11.2c-5 17.2-10.7 34.2-17 51A364.1 364.1 0 0 1 471 1260c-23.3 34.6-45.3 72.9-48.8 118.3-3.2 42.2-11.2 84.5-19.9 127.7-3.8 18.9-8 38.4-12 57.2l-.2.8c-10.4 48.1-21.2 98-27.6 147-6.6 50.5-19 144.4-86.8 144.5ZM-438.6 650.3c-65 0-88.6 71.2-109.4 134a457 457 0 0 1-25.3 65.4l-8.2 15.3c-15.3 28.4-29.7 55.1-35 88.9-8.4 54.7-9.6 109.4-9.8 150.9 0 5.4 0 11-.2 17.6-1.1 49.4 1.5 100.2 27.5 137.4 20.7 29.6 53.4 44.5 85 59a567 567 0 0 1 34.1 16.6l17 9 .5.2c25.4 13.1 54.3 28 71.8 48.8 17 20.3 22.7 46.2 28.4 71.3 2.2 10 4.5 20.4 7.5 30 8.9 28.7 25.4 47 58.9 65.7 38.1 21.2 75.3 45.8 111.3 69.6 41.5 27.3 84.3 55.6 127.6 78 20.1 10.5 40.2 21.4 59.6 32l.3.2c22.7 12.4 44 24 65.8 35.2 9 4.5 18 9.2 26.7 13.7 54 28.2 109.8 57.3 171.4 64.2 3 .3 5.9.5 8.7.5 66.4 0 78.7-93 85.3-142.9 6.5-49.3 17.2-99.2 27.6-147.4 4.1-19 8.4-38.6 12.2-57.8 8.7-43.2 16.7-85.5 19.9-127.5 3.5-45.8 25.7-84.3 49-119.1 15.5-23 28-47.3 38.3-74.2a667.4 667.4 0 0 0 20.3-62.2c11.3-37.9 24.1-80.8-.7-114.6-18.7-25.4-57-41.4-90.8-55.5a612 612 0 0 1-28.8-12.6c-42.2-20.1-85.7-39.3-127.8-57.9l-29.4-13c-13-5.7-26-11.6-38.8-17.7a2200 2200 0 0 0-78-34.5l-.4-.2-32.3-13.9a1532.8 1532.8 0 0 0-155.2-58c-34.1-10.6-69-13.4-102.8-16.1-11.9-1-25.2-2-38-3.5a362 362 0 0 1-50.7-8.8c-28.1-8-54.9-20.1-79.3-36.2-8-4.9-15.8-10-23.4-15l-.2-.2a505.7 505.7 0 0 0-46.2-28h-.3c-2.8-.6-5.4-.8-7.9-.8-12 0-19.9 5.8-29.8 14l-.2.3h-.4l-5.4-.2Z"/>
      <path d="M282 1940.6c-5 0-10.5-.6-16-1.6-101-19.5-197.9-64.5-291.6-108h-.2a4671.1 4671.1 0 0 0-75.7-34.6c-58.4-25.9-113.4-62-166.7-97-31.3-20.5-63.5-41.7-96-60.5-34.2-19.8-57.4-40.1-67.7-80.6-3-11.7-5.1-24.4-7.2-36.6-5.1-30.4-10.4-61.7-29.4-85.7-19.7-24.9-53.6-42.3-83.6-57.7h-.1l-19.8-10.4c-13.4-7-27-13.5-40.8-19.4-37.3-16.6-75.8-33.7-99.2-69.5-27.7-42.6-24.1-104.5-18.6-159.2 2.9-28.3 3.7-57.4 4.5-85.6.9-33.6 1.9-68.3 6.3-102.1 5.2-39.4 21.8-69.9 39.3-102.2l.2-.3 10.5-19.5c11-21 19.6-48.7 28.7-77.9 22.8-73.2 48.5-156.1 123.4-156.1 3 0 6 .1 9 .4h.1c.3 0 .5-.1.7-.3 11-9.7 19.2-16.1 32-16.1 3 0 6.2.3 9.8 1l.4.2a649 649 0 0 1 50.5 34.2c32.8 23.6 66.6 48 109.5 59 32 8.2 64.5 10 96 11.7 37.3 2 76 4.2 113.5 17.1 78 26.9 146.7 61.7 219.5 98.6h.2c37 18.8 75 38 114.4 56.2l29.7 13.6c47.2 21.7 96 44.1 143.6 66.8 10.5 5 23 9.8 36.4 15 37 14.4 78.8 30.7 99.5 57.3 28.8 37 16 84.3 4.7 126-1.5 5.5-3 10.6-4.2 15.7-15 58.5-33 102-58.6 141.2-23.8 36.7-48.5 81.3-50.4 133.5-2.6 69.6-19 140.7-34.9 209.5-12.3 53.5-25 108.8-31.3 163.3-5.2 45-14 120-53.1 148.8a61.5 61.5 0 0 1-37.2 11.8h-.1ZM-517.5 577.7c-73.8 0-99.3 82.2-121.9 154.6v.4c-9.2 29.3-17.8 57-29 78.2-3.4 6.7-7 13.3-10.5 19.7-17.6 32.2-34 62.6-39.2 101.7-3.8 33.9-6 68-6.3 102-.8 28.2-1.6 57.3-4.5 85.7-5.5 54.4-9 116 18.4 158 23 35.5 61.4 52.6 98.4 69 13.9 6 27.6 12.5 41 19.5 6.3 3.5 13.2 7 19.8 10.4 30.1 15.4 64.2 33 84.1 58 19.3 24.4 24.6 56 29.7 86.4 2.1 12.2 4.2 24.9 7.2 36.6 9 35 27 56.5 67 79.5 32.5 18.9 64.8 40.1 96 60.6 53.3 35 108.3 71 166.5 96.8 25.2 11.2 51 23.2 76 34.7 93.6 43.5 190.4 88.4 291.1 107.8 5.5 1 10.8 1.6 15.8 1.6a60 60 0 0 0 36.3-11.5c38.6-28.3 47.2-103 52.4-147.6 6.3-54.7 19-110 31.4-163.5 15.8-68.7 32.2-139.8 34.8-209.2 2-52.6 26.7-97.4 50.7-134.3 25.5-39 43.5-82.5 58.4-140.7 1.3-5.3 2.8-10.9 4.2-15.8 11.2-41.3 24-88.2-4.5-124.6-20.3-26.2-62-42.4-98.8-56.7-13.3-5.2-25.9-10.1-36.4-15.1-47.6-22.6-96.4-45-143.5-66.7l-29.8-13.7c-38.6-18-76.8-36.7-114.6-56.2C49.8 746.4-19 711.6-96.7 684.8c-37.3-12.9-75.9-15-113.2-17-31.5-1.7-64.1-3.5-96.2-11.7-43.2-11-77.2-35.6-110-59.4a652.8 652.8 0 0 0-50.6-34c-3.3-.7-6.3-1-9.1-1-12.4 0-20.2 6.1-31.6 16.2l-.3.2h-.3c-3.3-.3-6.5-.4-9.6-.4h.1Z"/>
      <path d="M881 2242.4a108 108 0 0 1-1-32.6c.4-8 1-16.2.3-24.2-7-84.1-16.1-154.5-28-215.3a765.8 765.8 0 0 0-13.8-56c-7.4-24.6-13-49.6-17.1-75-10.6-77.8 19.5-150.9 48.7-221.6v-.1c6.6-15.8 13-31.7 19.3-47.7l.3-.8c14.5-37.1 27-69.2 54.3-99.4l5-5.5.2-.3c17.5-19 29-31.4 18.8-59.5-6.8-18.6-24.4-36-41.4-52.7-7.9-7.8-15.4-15.2-21.6-22.6a422.5 422.5 0 0 1-32-44.8 720 720 0 0 0-19.3-28.7c-12.1-16.7-25-32.7-37.5-48.1-13-15.7-25.4-31.7-37.5-48-9.5-13-15-28-20.5-42.5-4.4-11.6-8.8-23.6-15.3-34.4-7.5-12.6-17-24.8-26.4-36.6-8.3-10.4-17-21.3-24-32.6-24.7-38.8-46.2-51.8-78.9-71.4-7.7-4.6-15.5-9.4-24.2-14.9-43-27.4-77.3-66-111.6-106.6-6.8-8-13.3-16.7-20.3-26-14.4-19-29.3-38.5-47-53.4a431.7 431.7 0 0 0-54-36.6c-22.7-13.9-46.2-28.2-65.9-47.1-58.6-56.3-31.9-123.9-6-189.3v-.1c4.7-12 9.6-24.2 13.8-36.3 12.6-35 25.7-69.8 39.2-104.5v-.2c15.1-39.3 30.7-79.8 44.7-120.4 22.4-64.7 9.3-89.6-30.9-139.2-41.5-51.2-100.2-84-157-115.7h-.1c-24.7-13.8-50.2-28-73.8-43.6-37.5-24.7-67.8-57.7-97-89.6-31.3-34-63.6-69.2-104.5-94l.8-1.4c41.1 25 73.5 60.2 104.8 94.3 29.2 31.9 59.5 64.8 96.8 89.4 23.5 15.5 49 29.7 73.7 43.5 57 31.8 115.9 64.6 157.6 116 39.7 49.2 53.7 75.6 31.2 140.8-14 40.5-29.6 81-44.7 120.3v.2A4345 4345 0 0 0 300 432.2c-4.4 12.3-9 24.4-14 36.5-26.8 67.9-52 132 5.7 187.5 19.6 18.8 43 33 65.7 46.8 18.5 11.3 37.7 23 54.2 36.9 17.8 15 32.7 34.6 47.2 53.7 7 9.2 13.5 17.8 20.3 25.9 34.1 40.4 68.3 79 111.2 106.2 8.6 5.5 16.5 10.3 24 14.8l.2.1c31.6 19 54.5 32.8 79.3 72 7.1 11.2 15.7 22 24 32.4 9.3 11.9 19 24 26.6 36.8 6.5 11 11 23 15.3 34.6 5.4 14.5 11 29.4 20.4 42.2 12.2 16.8 25 32.5 37.3 47.8l.1.2c12.5 15.5 25.4 31.4 37.5 48 7 9.7 13.3 19.4 19.4 28.9a427.3 427.3 0 0 0 31.8 44.6c6.9 7.8 14 15.3 21.6 22.4 17.1 17 34.9 34.4 41.7 53.4 10.5 29-2.5 43.2-19 61.1l-.4.4-4.9 5.4c-27 30-39.5 62-54 99l-6 15.2-13.4 33-.2.3c-29 70.5-59.2 143.5-48.6 220.7 3.5 25.6 10.4 50.7 17 75 5 18.2 10.2 37.1 14 56a1998.8 1998.8 0 0 1 28 215.5c.6 8.2 0 16.4-.4 24.4a104 104 0 0 0 1 32.1l-1.7.4h.1Z"/>
      <path d="M1019.7 2222c-5.6-9-8.2-18.9-10.8-29.3-1.4-5.4-2.8-10.8-4.7-16.3-5-15-10-31.2-14.8-46.9v-.1a959.8 959.8 0 0 0-29.8-87c-3.8-10.2-7.9-20.7-11.7-31.3-2.9-8-5.9-16-9-23.8l-6.3-15.7v-.2c-3.6-9-7.4-18.2-10.6-27.3-6.5-18-11.3-37.4-16-56.1l-6-23.5c-20.9-77.6 1.5-151.1 25.1-229l4.7-15.3 4-13.7v-.2c8.5-28.5 16.4-55.4 31-81.4a145 145 0 0 0 18-91.4c-4-33-10.1-45.4-34.7-69.4-7-6.9-13.7-14-20-21.5-11.2-13.1-19.9-27.4-29.1-42.5l-2.9-4.6-15-25a714.3 714.3 0 0 0-40.4-63c-6.5-8.7-14-16.6-21.4-24.2-12.8-13.3-26-27-33.5-45a543 543 0 0 0-89.1-143.5 587.8 587.8 0 0 0-71-70.5c-25.6-20.7-49.8-40.2-71.2-66.9-5.4-6.7-11-14-15.9-20.4a432.9 432.9 0 0 0-44-51.6 1106.2 1106.2 0 0 0-53.6-46.6l-.1-.1c-11.8-9.8-24-20-35.6-30.3-50.1-44.1-106.5-105.9-97.8-191.5 6.5-63.3 34.7-127.3 62-189.2 10.6-23.8 20.5-46.2 29.3-68.7 20.8-53.4 21.6-83 3.8-131.9-23-62.7-60.1-109-112.8-163.7-7.4-7.7-15.4-15-23-21.8a636 636 0 0 1-92-99c-25.8-33.4-52.4-67.9-87-92.6l1-1.3c34.7 24.8 61.4 59.4 87.2 92.8l.5.5c27 36 57.6 69 91.5 98.4 7.5 6.8 15.6 14.2 23 21.9C343.8 17 381 63.6 404 126.5c18 49.4 17.2 79.2-3.8 133.1-8.7 22.4-18.7 44.9-29.2 68.7-27.3 61.8-55.6 125.7-62 188.7-8.6 85 47.4 146.3 97.3 190.2 11.8 10.4 24 20.5 35.7 30.3v.1c18 15 36.4 30.3 53.6 46.6 16.4 15.6 30.6 34 44.2 51.9 5.2 6.7 10.5 13.6 15.9 20.3 21.3 26.6 45.4 46 71 66.7 21.3 17.2 45.2 41 71 70.7 37.2 43 67.4 91.5 89.5 143.8 7.4 17.8 20.5 31.4 33.2 44.6 7.4 7.7 15 15.6 21.5 24.3 14.7 19.7 27.8 41.8 40.5 63.1l.1.3 14.9 24.8 2.8 4.6c9.3 15 18 29.2 29 42.2 6.8 8 13.3 15 20 21.5 24.6 24 31.1 37.2 35.2 70.3 4 33-2 63.2-18.3 92.4-14.4 25.8-22.3 52.7-30.7 81l-.2.7-8.5 28.2v.4c-23.7 77.6-46 151-25.2 228l6 23.6c4.6 18.7 9.5 38 16 56 3.2 9.1 7 18.3 10.5 27.2a1188 1188 0 0 1 15.3 39.7c3.8 10.6 7.9 21.1 11.8 31.2v.1a923 923 0 0 1 29.8 87.1c4.8 15.8 9.7 32 14.8 47 1.9 5.6 3.3 11.1 4.7 16.5 2 10 5.6 19.8 10.6 28.7l-1.4.9h.1Z"/>
      <path d="M1158.6 2201.7c-12.1-8.5-20.2-20-28.6-32l-1.8-2.5c-10.5-15-20-32-29.2-48.5l-13-23c-7.7-13-16.2-25-24.6-36.7-7.7-10.8-15.7-22-22.9-34-4-6.6-8.5-13.6-12.8-20.4l-.9-1.4c-7.7-12.2-15.7-24.8-21.6-37.8-5.4-12.8-9.8-26-13.1-39.6a279 279 0 0 0-11.5-36.1c-31.4-73.6-20.4-146.3-2.7-233.7l4.6-25.3v-.2c3.3-19.1 6.7-39 12.8-57.6 2-6 4.4-12.1 6.7-18v-.1c7.4-18.6 14.2-36 11.8-56a291.8 291.8 0 0 0-50-131.7c-5.4-8.2-11-16.6-15.7-25.5-32.5-60.1-61.7-103.8-89.3-133.7-16-17.2-28.1-37.6-40-57.4a714 714 0 0 0-17-27.6c-12.6-19-24.4-39-35.9-58.2-14.7-24.7-29.8-50-46.5-73.9-7.5-10.6-16.4-20.6-25-30.3a313.2 313.2 0 0 1-33.4-43l-.3-.5c-13.3-20.4-23.8-36.5-44.3-51.6-28.4-21-49.6-46-72-72.5a659.3 659.3 0 0 0-47-51.7l-10.6-10.1-1.4-1.3c-40.8-38.8-83-78.8-107.6-131-45.2-96 1.7-202 39.4-287.3 21.1-48 33.6-82 38.6-124.8 7-58.6 10.3-117-24-186.3A141 141 0 0 0 413.2-25c-7.9-10-16.6-19.6-25.8-29.8-14.7-16.4-30-33.4-41.7-51.2-5.4-8.2-10.9-16.8-16.1-25.2-21.3-33.6-43.3-68.3-72.9-93.4l1-1.3c29.9 25.3 52 60.1 73.2 93.8 5.3 8.5 10.7 16.9 16.2 25.2 11.6 17.7 26.8 34.6 41.5 51C397.3-46 406.4-36 414.4-26c7.5 9.3 13 17.7 17 25.6 34.4 69.8 31 128.3 24 187.2-5 43-17.5 77.2-38.7 125.3-37.6 85-84.3 190.7-39.4 285.8 24.5 52 66.5 92 107.2 130.6l12 11.4a659 659 0 0 1 47.1 51.8c22.4 26.5 43.5 51.4 71.7 72.2 20.8 15.4 31.4 31.6 44.7 52.1l6.1 9.3c8 12.1 18 23.3 27.5 34 8.6 9.8 17.5 19.8 25 30.5 16.9 23.8 32 49.3 46.6 73.9 11.5 19.7 23.5 39 36 58.2 5.9 9 11.6 18.5 17 27.6 11.8 19.7 24 40 39.8 57.2 27.7 30 57 73.8 89.5 134 4.8 8.9 10 16.9 15.6 25.4a293.7 293.7 0 0 1 50.3 132.4c2.5 20.3-4.8 38.8-11.8 56.7-2.4 6-4.8 12-6.7 18.1-5.7 18.8-10 38-12.8 57.4-1.5 8.3-3 17-4.7 25.4-17.5 87.2-28.5 159.6 2.6 232.8 5 11.5 8.3 24 11.6 36.3 3.7 13.4 7.4 27.1 13 39.4 6.4 13 13.6 25.6 21.6 37.6l.7 1.1c4.3 6.9 8.9 14 13 20.8 7.2 12 15.1 23 22.8 33.8 8.8 11.9 17 24.2 24.6 36.8 4.5 7.6 8.8 15.4 13 23 9.2 16.5 18.7 33.6 29.2 48.5l1.8 2.4c8.7 12.5 16.3 23.3 28.2 31.6l-.9 1.4v.1Z"/>
      <path d="M1297.7 2181.3c-38-9.6-63.3-38.2-87.9-65.9-5.3-6-10.8-12.3-16.3-18-10-10.7-21-19.9-31.8-28.8-11-9.2-22.4-18.6-32.5-29.6l-10.4-10.8v-.1a227.8 227.8 0 0 1-34.3-41.3c-6.2-10.7-9.7-23-13.1-35-3-13-7.8-25.3-14.2-37-43.5-70.7-42.7-149-35.3-223 1.2-12 1.7-23.7 2-35 1-24 1.8-46.6 9.5-71.2 4.3-13.7 11-26.4 17.4-38.7 6-11.6 12.3-23.7 16.6-36.6 15-45.3-7.5-59.8-35.9-78.2-6.5-4.2-13.3-8.6-20-13.7-23.6-17.7-32.5-46.6-41-74.6a233 233 0 0 0-17.4-45.6c-16.6-30-40.2-55.7-63-80.5-13.4-14.7-27.4-30-39.8-45.9-16.2-20.9-26.6-43.9-36.6-66a355.7 355.7 0 0 0-30.5-57.7 1067 1067 0 0 1-21-32.4 496.6 496.6 0 0 0-47-65.8c-26-29-55.2-61.7-77-100.2-26.5-46.4-58.4-79.5-92.3-114.5-16.4-17-33.3-34.5-50-54a768 768 0 0 1-31.7-41l-2.1-2.9C410 567.1 392 503.7 405 438c11.7-59.2 47.5-112.6 82-164.3 48.1-71.7 97.8-145.8 83-236.3-4-25-22-47.6-39.4-69.5a292.5 292.5 0 0 1-30.3-43c-4.7-8.8-9.3-18-14.1-27.6-17.3-34.6-35.2-70.3-60.7-96.3l1.2-1.2c25.6 26.2 43.6 62 61 96.8v.1c4.8 9.6 9.3 18.7 14 27.4 7.8 14.8 19.2 29 30.1 42.8 17.6 22 35.7 44.8 39.9 70.3 14.8 91-35 165.5-83.3 237.4-34.5 51.6-70.2 104.8-81.8 163.8-12.9 65.2 5.2 128.2 56.8 198l2.2 3c9.9 13.4 21.2 28.7 31.6 41 16.6 19.4 33.5 36.9 49.9 53.8 33.9 35 66 68.2 92.4 114.8 21.8 38.3 51 71 76.8 100a497.2 497.2 0 0 1 47.2 66l.1.2c6.8 10.6 13.7 21.5 21 32.1 11.8 18.3 22 37.6 30.4 57.7 10 22.2 20.5 45 36.5 65.8 12.4 16 26.3 31.1 39.8 45.8 22.8 24.9 46.4 50.6 63.1 80.8 7.6 13.7 12.6 30 17.5 45.9 8.5 27.8 17.3 56.5 40.4 73.8 6.7 5 13.5 9.4 20 13.7 27.9 18 51.9 33.6 36.6 80-4.3 13-10.7 25.1-16.8 36.8-6.4 12.3-13 25-17.2 38.5-7.7 24.4-8.5 47-9.4 70.8a553 553 0 0 1-2 35c-7.4 73.8-8.2 151.8 35 222.1 7 11.3 10.7 24.5 14.3 37.3 3 12 7.3 23.7 13 34.7 8.4 14.5 21.4 28 34 41l10.5 11c10 10.8 21.4 20.2 32.4 29.3 10.7 9 21.9 18.3 31.9 29 5.5 5.8 11 12 16.3 18 24.5 27.5 49.7 56 87.1 65.5l-.3 1.5ZM235.8 759.4c-42.2 0-119.6-43-156.8-63.7-9-5-15.4-8.6-18-9.6-22-9.2-43-20.2-63.4-30.8l-.2-.1c-14.1-7.4-28.7-15-43.7-22-40.7-19-84.3-31.7-126.4-44-27.6-8-56-16.2-83.3-26.1-35.8-13-70.6-30.5-104.3-47.3h-.2c-18.8-9.5-38.3-19.2-57.6-28-9.9-4.4-20-8-29.8-11.5-26.7-9.5-52-18.4-70.9-44-16.7-22.6-36-55.2-33.2-82 2.4-22.8 13-47 23.3-70.4 6.7-14.3 12.5-29 17.4-44 16-53.8 20.9-111 25.6-166.1 2.5-30.4 5.2-61.6 9.6-91.5 8.1-53.7 41.9-87.9 74.5-120.9 25.5-25.7 51.7-52.2 66.3-88 4.1-10 7.2-21.4 10.6-33.4 10.2-37 20.7-75.1 60-75.1l3.7.1a65 65 0 0 1 50 32.3c3.6 6.7 4.9 13 3.4 17.1-.2.4-.1.8.2 1 12.7 13.2 21.4 31.5 29.8 49.3 7.1 15 14.5 30.6 24.3 42.9 20.8 26.3 50.8 45 79.8 63.2l7 4.3c15.9 10 32.5 19.4 48.6 28.5 31.8 18.1 64.8 36.8 93.5 60.5C124 .2 163.4 30.7 209.7 59c47.7 29 64.1 45.7 47.8 105-17 61.3-40.7 120.5-63.6 177.6-8.2 20.6-16.7 41.9-24.9 63-39 101.9-29.8 170.4 33.3 244.2 3 3.5 7.4 8.2 12.5 13.6 19.2 20.4 48 51.1 49 69 .5 11.5-2.9 19.5-10 24a34 34 0 0 1-18 4.1v-.1ZM-264.5-337.5c-38.3 0-48.6 37.5-58.6 73.8-3.4 12.1-6.5 23.5-10.6 33.6-14.8 36.2-41.1 62.8-66.6 88.6-34 34.4-66.1 66.9-74.1 120.1-4.5 29.8-7.1 61-9.7 91.2v.1c-4.7 55.3-9.5 112.5-25.6 166.5-4.3 14.2-11 29.5-17.5 44.2-10.2 23.3-20.8 47.3-23.2 70-2.8 26.2 16.4 58.4 33 80.8 18.6 25.1 43.6 34 70 43.4 10 3.5 20 7 30 11.6 19.3 8.7 38.7 18.4 57.5 27.8l.3.2c33.7 16.8 68.5 34.2 104.2 47.2 27.2 9.8 55.5 18 83 26 42.3 12.3 86 25 126.8 44.1 15 7 29.7 14.7 43.8 22.1h.1a810.9 810.9 0 0 0 63.4 30.8c2.6 1 8.7 4.4 17.9 9.6h.1C117 715 194.3 758 235.4 758a33 33 0 0 0 17.5-4.1c6.7-4.2 9.8-11.5 9.2-22.4-.8-17.4-29.5-47.8-48.4-68-4.3-4.5-8.5-9-12.6-13.7-63.5-74.4-73-143.3-33.6-245.7 8.1-21 16.5-42 25-63 22.9-57.2 46.5-116.3 63.4-177.6 16.1-58.4.8-73.9-47-103C162.5 32 123 1.4 74.5-38.7 46-62.3 13.1-81-18.7-99c-16.1-9.2-32.8-18.6-48.7-28.6l-7-4.4c-27.7-17.3-59.2-37-80.2-63.5-10-12.5-17.3-28.1-24.5-43.2-8.5-18-17.4-36.7-30.4-49.7l-.4-.4.3-.6c2-3.5.9-9.8-3-16.6a63.3 63.3 0 0 0-52-31.6l.1.1Z"/>
      <path d="M167.2 720c-35.5 0-96.9-34-129.8-52.4-8-4.4-14.3-7.9-17-9-18.8-8-36.8-17.3-54.3-26.4-11.8-6.2-24-12.5-36.6-18.5-34-16-70.2-27.2-105.2-37.9-23.6-7.2-48-14.6-71.4-23.5-34-13-67-31.1-98.9-48.7-13.6-7.5-27.2-14.8-41-22-8.2-4.4-16.6-8-24.8-11.4-22.8-9.6-44.3-18.8-60.4-41.6-20.5-29.3-30.2-53.8-28.6-72.8 1.7-22 11.2-45 20.4-67.2 5-12 9.7-23.5 13.2-34.6 17.8-56.3 23.1-110.9 28.8-168.7V85c1.8-18.9 3.8-37.7 6-56.5 5.7-47 33.4-77.4 60.2-106.8 20.1-22.2 41-45.1 53-75.2 3.2-8.3 5.9-17.6 8.6-27.3 9.2-32.3 18.6-65.5 53.9-67.1h2.4a61 61 0 0 1 45 20.7c2.5 3.2 3.8 6 3.8 8.2 0 .3.2.6.5.8 15.4 10 26.5 26.8 38.4 44.5a283 283 0 0 0 34.8 44.9c19.4 20.3 37.7 39.5 60.7 56.7C-55-59.9-37.1-48.9-20-38.2 3.7-23.5 28-8.3 49.6 10.4c35 30.1 72.5 62 114.7 90.1 39.3 26.3 54 42.2 41.2 93.8-13.7 55-34.5 109.5-54.7 162.2l-6 15.5c-2 5.8-4.3 11.5-6.5 17.2v.2l-8.4 22.1c-6.6 17-11.5 34.8-14.8 52.8a208.8 208.8 0 0 0 1.4 76.9c8 37.7 24.4 73 47.8 103.7 13.3 17.8 29.7 40 28.8 53.3-.6 8.9-4.2 15.2-10.6 18.6a32 32 0 0 1-15.4 3.3l.1-.1Zm-421.7-966.4-2.1.1c-34.1 1.5-43.4 34.2-52.4 65.8-2.8 9.9-5.4 19.2-8.8 27.6-12 30.4-33 53.4-53.3 75.7-27.8 30.6-54 59.5-59.7 106-2.3 19.2-4.3 39.1-6 56.6-5.7 58-11 112.7-28.9 169a426.6 426.6 0 0 1-13.2 34.8c-9.2 22.1-18.7 45-20.3 66.7-1.6 18.7 8 42.8 28.3 71.7 15.8 22.5 37.2 31.5 59.8 41.1 8 3.5 16.5 7 24.8 11.4a1593 1593 0 0 1 40.7 21.9l.3.2a804.1 804.1 0 0 0 98.8 48.5c23.3 8.9 47.6 16.3 71.2 23.5 35.1 10.8 71.4 22 105.5 38 12.5 6 24.8 12.3 36.6 18.5 17.5 9 35.4 18.4 54.3 26.4 2.7 1.1 8.6 4.4 16.9 9l.1.1c30.6 17 94 52.3 129 52.3 6 0 11-1 14.7-3 6-3.3 9.2-9 9.8-17.4.9-12.7-16.1-35.5-28.5-52.2v-.1a262.3 262.3 0 0 1-48-104.3 210.3 210.3 0 0 1-1.6-77.5 292 292 0 0 1 15-53c2.7-7.6 5.6-15 8.4-22.4l6.5-17.2 6-15.4c20-52.7 41-107.2 54.6-162 12.7-51-1-65.7-40.5-92.1A1177 1177 0 0 1 48.7 11.6C27.2-7 2.9-22.1-20.7-36.8a713.3 713.3 0 0 1-51.4-34 499.3 499.3 0 0 1-61-56.9 280.5 280.5 0 0 1-34.9-45c-12-18-23.3-35-38.8-44.7l-.5-.3.1-.6c.4-1.7-.8-4.6-3.4-7.8a60.5 60.5 0 0 0-43.9-20.2v-.1Z"/>
      <path d="M99.2 680.3c-29.2 0-77.8-26.7-103.8-41-7.2-4-12.8-7-15.6-8.2a671.4 671.4 0 0 1-45.3-22c-9-4.7-19.1-10-29.2-14.8a692 692 0 0 0-84.1-31.8c-19.7-6.5-40-13.2-59.4-21-32.2-13-63.5-32.6-93.8-51.5l-.3-.2-23.7-14.7c-6.5-3.9-13-7.3-19.4-10.7-19-10-37-19.4-50.2-39.6-16.8-25.4-24.9-46.8-24-63.6.9-21.7 9.5-44 17.8-65.5 3.1-8.2 6.1-16 8.7-23.6 22.2-65.7 28.5-124 34.4-193.4 3.4-40.2 25-67 45.8-93 14.9-18.6 30.2-37.7 39.6-62 2.5-6.6 4.6-13.7 6.9-21.2 7.7-26.3 15.7-53.4 43-59.1l.1.8c0 .3.3.6.6.7-26.6 5.4-34.5 32.1-42.2 58v.1c-2.1 7.2-4.4 14.7-6.9 21.3-9.4 24.5-24.9 43.8-39.8 62.4-21.7 27-42 52.5-45.5 92.2-6 69.4-12.2 127.8-34.5 193.8-2.5 7.6-5.5 15.4-8.7 23.6-8.3 21.4-16.8 43.6-17.8 65-.7 16.4 7.3 37.5 23.8 62.6 13 19.9 30.8 29.2 49.6 39l.3.2c6.3 3.3 12.8 6.8 19.2 10.7l23.5 14.5.6.4c30.2 18.8 61.4 38.3 93.5 51.2a868.8 868.8 0 0 0 59.2 21c28 9.2 57 18.8 84.4 32 9.8 4.6 19.5 9.7 28.8 14.5l.4.2c14.5 7.5 29.5 15.3 45.2 22 5.3 2.6 10.5 5.4 15.6 8.3 26 14.3 74.4 40.8 103.1 40.8 4 0 8-.6 11.8-2a17 17 0 0 0 10.1-12c2.5-8.9-5-25-10.9-37.8-2.6-5.8-5-11.1-6.4-15.1L102 606a555 555 0 0 1-20-72.8c-4-22.2-7.2-44-4.4-68.2 1.8-14.5 5.5-29.6 11.9-47.3l5.2-14.3.4-1.2c4.8-13 9.5-26 14-39.2l.4-.8c16.2-45.4 33-92.4 42.7-137.9 8.7-40.8-.9-56-34-81-33-25.7-64.9-52.9-95.3-81.6A468.4 468.4 0 0 0-29 22.2 469.2 469.2 0 0 1-76.8-14a187.5 187.5 0 0 1-28.8-35c-6-8.6-12.1-17.5-20-26.4l-12.8-14.8-4.3-5c-21.5-25.3-38.4-45.2-61.4-51.2l-.4-.2a70 70 0 0 0-47.1-8.6c.2-.3.3-.6.3-1l-.2-.7a72 72 0 0 1 48 9c23.4 6.1 40.4 26.2 62 51.6l4.3 5 12.9 14.9c7.9 9 14 17.9 20 26.5 8 12.7 17.6 24.3 28.5 34.7C-60.7-2.2-44.7 10-28 21a467 467 0 0 1 52 39.6c32.6 29.8 62.2 56.5 95.2 81.5 33.2 25 43.4 41.3 34.6 82.6-9.7 45.6-26.5 92.6-42.8 138.2v.2l-7.2 20-7.1 19.7-5.6 15.5a207 207 0 0 0-11.8 47 220 220 0 0 0 4.4 67.7 537 537 0 0 0 19.9 72.6l1.8 5.7c1.3 3.9 3.7 9.2 6.3 14.8 6.4 13.9 13.6 29.6 11 39a18.8 18.8 0 0 1-11 13 32 32 0 0 1-12.5 2.2Z"/>
      <path d="M35.7 641.6c-22.4 0-60.3-19.5-83-31.2-6-3.1-10.7-5.6-13.6-6.8-12.7-5.5-25-12-36.9-18l-.1-.2-21-10.6c-20.5-10-42-18-62.8-25.6-16-5.7-32-11.9-47.7-18.6-31.1-13.7-61.2-36.2-90.3-57.9l-5.3-4c-4.5-3.3-9-6.4-13.6-9.5-15.3-10.5-29.8-20.4-40.5-38.2-12.9-21.5-19.4-39.8-19.4-54.4 0-23.4 9-47.8 16.9-69.3l2.6-7c20.2-55.7 31.6-98 34-161.4 1.2-33.7 16-56.2 31.5-80 10.5-15 19.3-31 26.2-48 1.7-4.7 3.2-9.7 4.8-14.5 6.7-21.5 13.7-43.7 34.3-52.1 13.3-5.5 25.5-7.5 34.4-9 5.2-.9 9.2-1.6 12-2.6h.3c2-.3 3.9-.4 5.8-.4 22.3 0 42.8 12 66.6 38.9a398 398 0 0 1 12.3 14.5A119 119 0 0 1-99.6 7.6c5 11.9 9.5 23 19.3 34a329.6 329.6 0 0 0 41.2 37C-26.6 88.7-13.7 99.1-1.9 111l1.9 1.9c25 24.8 48.7 48.3 73.9 70.9 23.4 21 33.5 37 27.9 71.4-6.1 37.4-20 79.9-32.2 117.3l-.1.3-7 21.6A797.8 797.8 0 0 1 52 425.2c-5.4 15.7-8 28.4-8.8 41-.8 15.1 2 29.4 4.6 43.3 1 5 2 10.1 2.8 15.3 3.7 23.4 7.5 47.6 6.2 68-.2 4 0 8 .3 12 .8 10.6 1.5 21.6-4.8 27a1 1 0 0 0-.3.5 12.5 12.5 0 0 1-7.2 7.8c-2.5 1-5.5 1.6-9.1 1.6v-.1ZM-195.8-76c-1.9 0-3.7.1-5.6.3-2.9 1-7 1.7-12.1 2.6a153 153 0 0 0-34.1 9c-20 8-26.8 29.9-33.4 51v.2c-1.6 5-3.1 9.8-4.8 14.4-6.9 17-15.7 33.2-26.3 48.2-15.4 23.7-30 46-31.3 79.2-2.3 63.7-13.8 106-34 161.9l-2.7 7c-7.9 21.4-16.8 45.7-16.8 68.8 0 14.3 6.5 32.3 19.2 53.6 10.5 17.4 24.8 27.2 40 37.6l.2.2c4.4 3 9 6.1 13.4 9.5l5.4 4c29 21.6 59 44 90 57.6a808.7 808.7 0 0 0 47.5 18.6 635 635 0 0 1 63 25.6c7.2 3.5 14.3 7.2 21.1 10.8 12 6.4 24.3 12.4 36.8 18 3 1.3 8 3.8 13.7 6.8 21.1 10.9 60.4 31.2 82.2 31.2 3.3 0 6.2-.5 8.5-1.5 3.3-1.4 5.4-3.8 6.4-7.3l.1-.2.2-.2c6.1-4.8 5.4-15.6 4.7-26-.3-4.4-.6-8.6-.4-12.3 1.4-20.1-2.4-44.2-6.1-67.5-.8-5.2-1.9-10.6-2.8-15.3-2.7-14-5.4-28.4-4.6-43.6.7-12.9 3.4-25.7 8.8-41.5l3.8-11.2 6.7-19.7 6.6-20.3.5-1.6c12.2-37.4 26-79.7 32.2-117 5.5-34-4-49-27.4-70-25.3-23-50-46.7-74-71L-3 112c-11.7-11.3-24-22-37-32-15.1-12.3-29.4-23.8-41.5-37.3-9.9-11.2-14.7-23-19.4-34.4a119 119 0 0 0-17-31.5c-4.1-5-8.2-10-12.3-14.5-23.4-26.5-43.6-38.3-65.5-38.3h-.1Z"/>
      <path d="M-30 602.6c-16.7 0-43.4-13-61.1-21.6l-10.4-4.9a544.2 544.2 0 0 1-30-14.8l-.4-.2-11.1-5.8a747 747 0 0 0-40.6-18.6c-12.5-5.3-24.8-11-36.9-17-27-13.5-53.5-37.8-73.5-57.3l-5.7-5.5-.4-.5c-12.4-11.8-24-23-32.4-39.2a119 119 0 0 1-14.8-45 146 146 0 0 1 12.4-63.9l9.4-22.6.1-.2c14.8-35 25.5-60.3 24-106.4-.8-28.6 8.2-49.1 17.8-70.8 4.3-9.5 8.6-19.3 12.2-30.1l1.9-5.7v-.1c5.4-16.8 11.6-35.8 25.4-46.9 14.3-11.4 29.1-22 44.5-32 9.2-4 18.3-6 27-6 18.3 0 35.6 8.9 51.6 26.2 4 4.3 8 9.1 11.7 14.4A76.5 76.5 0 0 1-97 63c2 11.6 4 23.7 12 35.4 9.3 13.7 21.6 26 34.6 39.1 7.5 7.5 15.3 15.3 22.6 23.6C-5 186.6 13 207 28.6 225.3c14.8 17.3 23.6 33.5 21.3 60.2-2.6 29.5-13 65.2-22 96.8l-.2.2-6.5 23c-1.7 6.3-3.7 12.2-5.6 18L13 432c-3 9.7-6 21.4-5.7 35.2.3 9.8 3 19.2 5.5 28.2 2 7 4 14 4.9 21.2 3 22.4-.6 43.4-9.5 57.7C.9 585.7-6 596.5-18.6 599a1 1 0 0 0-.4.3c-2.5 2.2-6.1 3.3-11 3.3ZM-243 26.8c-13.4 10.8-19.5 29.5-24.8 46l-.3.8-1.6 5c-3.7 11-8 20.8-12.3 30.4-9.5 21.5-18.5 41.8-17.6 70 1.5 46.5-9.3 72-24.2 107v.2l-9.5 22.7a144 144 0 0 0-12.3 63.1c.8 12.3 5.7 27.2 14.6 44.5 8.4 16 19.9 27 32 38.7l6.2 6c20 19.5 46.2 43.6 73.1 57.1 12 6 24 11.3 36.8 16.8a742.8 742.8 0 0 1 51.4 24.3l.8.4c9.7 5 19.7 10.3 30 14.8l10.2 5h.1C-73.7 587.6-46 601-30 601c4.6 0 8-1.1 10.2-3.3l.2-.2h.3c12.2-2.3 19-13 26-24.2 8.8-14 12.2-34.5 9.3-56.6-1-7-3-14.1-4.8-21-2.6-9-5.3-18.6-5.6-28.5-.4-14 2.7-26 5.8-35.8L14 423c1.9-5.7 3.8-11.7 5.6-18l6.4-22.6.2-.6c9.1-31.4 19.4-67 22-96.4 2.3-26.2-6.3-42-21-59A3746 3746 0 0 0-29 162.2c-7.3-8.2-15-16-22.5-23.4l-.1-.1a286.3 286.3 0 0 1-34.8-39.3c-6.8-11-11-23.4-12.3-36.2-2-12-4-23.3-12-34.2-3.7-5.1-7.6-9.9-11.5-14.1-15.7-17-32.7-25.7-50.6-25.7a65 65 0 0 0-26 5.8h-.2a550.8 550.8 0 0 0-44 31.9v-.1Zm817.5 1853.4c-35.6 0-67.2-8.5-88.9-24a72.9 72.9 0 0 1-31.8-66.8c.5-7 1.6-13.8 3.3-20.5 3.4-13.4 8.9-26.6 14.2-39.3 10-24.2 20.3-49.1 16.9-75.6-9.9-75.8 8.2-167 46-232.2 15.2-26 26.8-53 38-79.3l.1-.2c8.7-21 18.2-41.6 28.4-61.9 23.8-46 33-90 27.6-130.9-.4-3.1-1.1-6.6-1.7-9.9-3.6-18.7-8.1-42 19.2-51.3 3.1-1 6.1-1.5 9-1.5 14 0 23.5 12.5 31.8 23.5l6 7.6c37.3 46 65.7 98.6 83.6 155.1 6.3 20.6 17 41.2 27.5 61.2 17.8 34 36.2 69.2 34.4 106.7-1 23.1-7.5 46.6-13.7 69.4-4.8 17.7-9.8 36-12.2 54l-.7 5.5c-5 36.7-9.5 71.3-21.8 105.7-3 8.5-5.8 17.3-8.5 26-10 31.6-20.3 64.4-44.3 86-7.8 7-16.2 15.9-25.1 25.1-20.5 21.3-43.7 45.4-65.4 54.5-19.8 8.3-46 13-71.9 13v.1Zm-119-90.7a70.4 70.4 0 0 0 31 65.4c21.6 15.3 52.8 23.7 88 23.7 26 0 51.3-4.6 71.2-13 21.5-9 44.5-33 64.9-54.1 9-9.3 17.3-18 25.2-25.2 23.6-21.4 34-54 43.8-85.4 2.7-8.7 5.6-17.4 8.6-26 12.2-34.2 16.8-68.7 21.7-105.3l.7-5.6c2.4-18 7.4-36.3 12.3-54.1 6.2-22.7 12.6-46.2 13.6-69 1.7-37.2-16.6-72.2-34.2-106a375 375 0 0 1-27.6-61.4 481.9 481.9 0 0 0-83.3-154.6l-6-7.6c-9-11.8-17.4-23-30.5-23-2.7 0-5.6.6-8.5 1.6-26 8.8-21.9 30.3-18.2 49.4.6 3.4 1.3 6.8 1.7 10 5.6 41.2-3.8 85.6-27.7 131.9a941 941 0 0 0-28.4 62 725 725 0 0 1-38.1 79.5c-37.7 64.9-55.7 155.6-45.9 231 3.5 27-6.9 52.1-17 76.4a292.6 292.6 0 0 0-14 39.2c-1.9 7-3 13.8-3.4 20.2h.1Z"/>
      <path d="M583.8 1846.4c-19.4 0-47.5-3.2-71-18.3a69.4 69.4 0 0 1-33-63.4 99 99 0 0 1 2.3-18.2c2.7-12.4 7.3-24.7 11.8-36.7l1.1-2.9c8.2-21.6 14.8-41.3 12.8-62.3a372 372 0 0 1 44.5-204.3c13.2-24.3 25-49.4 35.5-75 7.7-18 15.7-36.5 24.8-54.7 13.5-27.2 22-53.7 25.4-79 2-16.5 1.8-33.2-.6-49.6-2.4-17.3-5.4-38.8 18.9-47.2 2.6-1 5.3-1.5 8.1-1.5 11.8 0 20 10 27.2 18.7v.1c1.7 2 3.3 4 5 5.8a378.2 378.2 0 0 1 72 130.4c6.2 18 13.7 35.6 22.4 52.6 15.4 31.6 31.2 64.2 29.6 98.8-1 21-6.5 42.4-11.8 63.2-4 15.6-8.2 31.8-10.4 47.6l-.8 6c-4.3 31.6-8.7 64.3-19.2 95.8-2.4 7.3-4.7 15-7 22.3-8.9 29.5-18 60-38.6 81.2-5.9 6-12 13-18.6 20.4l-.1.1c-18.7 21.2-39.8 45.1-60.4 55.2-22 10-45.9 15.1-70 14.9h.1Zm80.7-711.5c-2.5 0-5 .5-7.7 1.4-23 8-20.2 27.9-17.7 45.4.4 3.2.8 6 1 8.9 1.4 14.2 1.2 28.1-.5 41.3-3.4 25.3-12 52-25.6 79.4-9 18.2-17 36.7-24.6 54.6a750.7 750.7 0 0 1-35.7 75.2 370.2 370.2 0 0 0-44.3 203.4c2 21.3-4.6 41.1-12.8 63l-1.1 2.9c-4.8 11.9-8.8 24-11.8 36.5a98 98 0 0 0-2.4 17.9 68 68 0 0 0 32.4 61.9c12.8 8.3 35.4 18.1 70 18.1A163 163 0 0 0 653 1830c20.3-9.9 41.3-33.7 59.9-54.7 6-7 12.3-13.9 18.7-20.6 20.3-21 29.4-51.3 38.3-80.5 2.2-7.4 4.5-15 7-22.4 10.4-31.4 14.8-64 19.1-95.4l.8-6c2.2-16 6.4-32.2 10.4-47.9 5.3-20.7 10.8-42 11.8-62.8 1.5-34.3-14.2-66.7-29.4-98-8.4-17.3-17-35.1-22.6-53-15.8-50-42-96.2-76.7-135.6-7.6-9.4-14.9-18.2-25.8-18.2Z"/>
      <path d="M594.9 1812.7c-19 .4-37.9-4-54.7-13a66 66 0 0 1-34.6-59.7c0-4.9.4-10 1.4-15.8 2-11.9 6-23.5 9.6-34.7 5.7-17.3 11.7-35.2 10.8-54.2-2.6-56.3 13.9-124 43-176.5 12.9-23.4 23.4-48 33.6-71.9 6.5-15.1 13.1-30.7 20.4-46.1a260 260 0 0 0 23-71.8 194 194 0 0 0 .9-44.4c-1.3-16-2.8-35.9 18.5-43.4a22 22 0 0 1 7.4-1.4c9.4 0 16.3 7.4 22.4 14l4 4.2c24.3 24.3 46.8 63.8 60.3 105.5 4.7 14.4 11 29 17.2 43 13 29.4 26.4 60 25 92-1 19-5.5 38.5-10 57.3-3.2 13.5-6.5 27.3-8.4 41l-1 6.8c-3.9 28-7.9 57-16.6 85.5l-5.3 18.3c-7.8 27.4-16 55.7-33.1 76.6l-11.4 14.2c-17 21.6-36.4 46.1-56.3 57.6-20.2 11.3-43 17-66.1 16.9Zm79.2-631.3a22 22 0 0 0-6.8 1.3c-20.1 7.1-18.7 24.7-17.4 41.8l.5 7.3c.7 14.1.2 26.7-1.4 37.5-4.2 25-12 49.4-23.1 72.2-7.3 15.4-14 31-20.4 46a779.9 779.9 0 0 1-33.7 72c-29 52.4-45.3 119.7-42.8 175.7 1 19.4-5.3 38.2-10.8 54.8a240 240 0 0 0-9.5 34.4 85 85 0 0 0-1.4 15.5 64.5 64.5 0 0 0 33.7 58.4 110.7 110.7 0 0 0 53.9 12.8c23.6 0 46.8-6 65.3-16.7 19.6-11.3 38.8-35.7 55.8-57.2l11.4-14.2c17-20.7 25-48.9 32.8-76v-.3l5.4-18c7.8-28 13.3-56.5 16.5-85.3l1-6.9c2.2-13.8 5-27.5 8.4-41 4.5-18.8 9-38.2 10-57 1.4-31.8-12-62-24.9-91.4-6.2-14-12.6-28.6-17.3-43.1-13.4-41.5-35.7-80.7-59.9-105l-4-4.2c-6.4-6.9-12.5-13.4-21.3-13.4Z"/>
      <path d="M606.4 1779.3a89.6 89.6 0 0 1-39-8.4 63.3 63.3 0 0 1-35.9-55.7c-.2-4 0-8.4.5-13.4 1.1-10.4 3.8-20.8 6.2-29.7l.7-2.9c3.9-14 7.8-28.4 8-43.3 1-46 16.4-101.6 41.5-148.7 12-23.4 23-47.4 33-71.8 4.8-11.3 9.7-23 14.9-34.5a270.2 270.2 0 0 0 20.5-64.5 211 211 0 0 0 2.2-33.3v-5.2c0-15.8-.2-33.5 18.3-40.3 2.3-.9 4.5-1.3 6.7-1.3 7.3 0 12.6 4.7 17.7 9.2h.1c1 .9 1.8 1.7 2.8 2.4 19 16 36.7 45.4 48.6 80.8 3.4 10 7.3 20.1 11.1 29.9v.1c11.2 28.5 22.6 58 21.2 88.6-.8 17.3-4.5 35-8.2 52.1v.1c-2.3 11-4.7 22.3-6.4 33.5l-1.2 8.4a609.3 609.3 0 0 1-17.3 87.5c-6.8 25.8-13.8 52.4-27.8 73.3l-2.3 3.5c-15 22.5-33.8 50.5-53.9 64.4a111 111 0 0 1-62 19.2ZM684 1228c-2 0-4 .4-6.2 1.2-17.4 6.4-17.3 22.9-17.2 38.8v5.2a204 204 0 0 1-2.2 33.6 273.7 273.7 0 0 1-20.7 64.9c-5.1 11.6-10 23.2-14.8 34.4a936 936 0 0 1-33 72c-25 46.8-40.5 102.1-41.3 148-.3 15-4.3 29.6-8.1 43.7l-.8 2.8a198 198 0 0 0-6.1 29.5c-.5 5-.7 9.2-.5 13.1a60.8 60.8 0 0 0 35 54.4 88 88 0 0 0 38.3 8.2c21.8 0 43.5-6.7 61-18.9 19.9-13.8 38.5-41.6 53.5-64l2.3-3.4c13.8-20.7 20.8-47.2 27.6-72.8l3.5-13.1a613 613 0 0 0 13.8-74.3l1.2-8.4c1.6-11.2 4-22.6 6.4-33.6a324 324 0 0 0 8.2-52c1.4-30.2-10-59.5-21-87.8-3.9-9.9-7.9-20-11.2-30.1-11.8-35.2-29.4-64.4-48.2-80l-2.9-2.6c-5.1-4.5-10-8.7-16.6-8.7v-.1Z"/>
      <path d="M618.9 1746a68 68 0 0 1-24.4-4.4c-20.8-8-34-26.2-37-51.1-.5-3.3-.6-6.9-.5-11 0-7.2 1-15.1 2.8-24.8.6-3.8 1.4-7.5 2.2-11.2 1.8-8.9 3.6-18 4.6-27 5-44.5 24.4-90.3 39.8-120.8 14.6-29 27.6-60.3 40.1-90.7l1.6-3.9a320.5 320.5 0 0 0 18.1-57.3c1.5-7.4 2.1-16 2.7-25l.5-6.1c1-15.2 2.3-32.5 18.3-38.7 2.3-.9 4.5-1.3 6.7-1.3 5 0 9 2.3 13 4.6l1 .6c14.6 8.4 26.7 26.7 37.1 56l.6 1.5c12 34 23.5 66.2 21.9 100.7a376 376 0 0 1-6.8 49.4c-1.4 7.8-2.8 15.8-4 23.7l-1.6 10.7-.1.9c-3 20-6 40.6-11 61.9l-.9 4.2c-5.8 25.3-11.9 51.5-23.2 73.6-10 19.7-25.6 47.8-44.6 64a89.4 89.4 0 0 1-56.9 21.5Zm69.4-470.5c-15 5.9-16.2 21.9-17.3 37.3l-.5 6.2c-.6 9-1.2 17.7-2.7 25-4.2 19.8-10.3 39-18.2 57.7l-1.6 3.9c-12.5 30.5-25.5 62-40.1 90.8-15.4 30.5-34.8 76-39.7 120.3-1 9.1-2.8 18.2-4.6 27l-2.2 11.3c-1.8 9.6-2.7 17.4-2.8 24.5 0 4 0 7.6.5 10.8 3 24.2 15.8 42 36 49.8a65.6 65.6 0 0 0 23.8 4.3c19.7 0 40-7.7 55.8-21.2 18.8-16 34.3-43.9 44.3-63.5 11.2-21.8 17.2-48 23-73.2l1-4.2c4.4-20.5 8-41 10.8-61.8l.3-2 1.5-9.5c1.2-8 2.6-15.9 4-23.6v-.1c3-16.2 6-33 6.8-49.3 1.5-34.1-9.8-66.1-21.9-100l-.5-1.5c-10.3-29-22.1-47-36.3-55.2l-1.2-.6c-3.5-2.5-7.7-4-12-4.4-2 0-4 .4-6.2 1.2Z"/>
      <path d="M512 2061.8c-45.5 0-83-17-111.4-50.3a47.6 47.6 0 0 1-13.2-30.9c-.4-5-.6-7-4.9-7.7h-.2l-.2-.2c-5.9-5.7 3.2-44.6 13-83.9l4-16.4c3.7-22 10.6-45.2 17.1-67.7 9.6-32.6 19.5-66.3 20.8-97.7.3-9.1-1.4-18.2-3.1-27-1.9-9.6-3.8-19.4-3.1-29.2 1-9.5 3.2-19 6.3-28 2.4-7.8 4.9-15.8 6-23.9l1.2-8.4c4-28.5 8-58 16-86 5.7-20 10.6-40.3 15.3-59.9v-.3c13.1-54.5 25.5-106 54.5-154.5 24.4-40.6 57.2-99.9 61-145.2.5-5.3.7-11.9 1-19.6 1-32.4 2.7-81.4 27-96 5-3 10.8-4.5 16.7-4.4a67 67 0 0 1 28.6 7.8c31.6 15.4 51.3 55.2 68.7 90.3v.1c5.5 11 10.6 21.3 15.8 30.2 8.6 14.8 16.5 30 24.2 44.8v.2c19.7 37.4 38.1 72.8 67.3 105 75.5 83.2 61.2 161.8 11.2 269.4-34.3 73.6-61.4 136.5-73.3 219.5-13.2 91.6-31.4 171.7-122.1 224.8-32 18.7-81 41.7-132.8 44.7-3.9.3-7.7.4-11.4.4Zm123.8-1035.6a30 30 0 0 0-15.8 4.2c-23.6 14.2-25.2 62.7-26.3 94.7v.2c-.2 7.6-.5 14.2-1 19.5-3.9 45.7-36.8 105.1-61.2 145.9-28.9 48.3-41.2 99.7-54.3 154-4.7 19.7-9.6 40-15.3 60.4-8 27.9-12 57.3-16 85.7l-1.2 8.4c-1.2 8.2-3.6 16.3-6 24.1-2.9 9.5-5.6 18.5-6.3 27.7-.6 9.6 1.2 19.3 3 28.6 1.8 9 3.6 18.2 3.2 27.5-1.3 31.7-11.2 65.4-20.8 98.1-7 22.2-12.7 44.7-17.2 67.5-.4 2.5-2 8.7-3.9 16.5-8.6 34.7-18 75.3-14 81.8l.7.5c5 1 5.2 4.3 5.6 9 .5 6.5 1.2 16.3 12.9 30 28.2 33.1 65.2 50 109.9 50 57.7 0 114.7-28.3 143.5-45.2 90.1-52.7 108.3-132.4 121.4-223.6 11.9-83.2 39-146.2 73.4-220 49.8-107 64-185-10.9-267.6-29.3-32.3-48.7-69.4-67.4-105.4-7.7-14.7-15.7-30-24.3-44.9a522 522 0 0 1-15.8-30.3c-17.3-35-37-74.4-68-89.6a65.6 65.6 0 0 0-27.9-7.6v-.1Z"/>
      <path d="M517 2043.9c-16.9 0-32.8-2.7-47.4-7.8-20.6-7.3-38.6-20-53.7-37.7a35.7 35.7 0 0 1-10.2-23.5c-.3-3.9-.8-11-6.7-15.4l-.4-.2v-.4c.4-14.6 10.6-55.3 14.4-70.6 2.4-9.4 3.6-14.5 4-17.1 4.4-22 10-44 16.7-65.4 9.7-32.8 19.6-66.8 21-99.3a126 126 0 0 0-3.4-29.4c-1.7-9-3.3-17.5-2.8-25.5.6-8 3.1-16.2 5.8-25 2.8-8.3 4.9-16.8 6.3-25.4l1.1-8.4c3.9-27.6 7.9-56.2 15.5-83 5.7-20.1 10.5-40.3 15.2-59.7v-.2c5-20.7 15.3-40 25.2-58.7 4.5-8.4 9.1-17.2 13.2-26 8.4-18 15.6-35.9 22.6-53.2 5.9-14.6 12-29.8 18.7-44.9l7.1-15.2c8.8-18.6 17.1-36.2 20.5-58.2 2-12.8 3-25.9 4.1-38.6 1-13 2.2-26.6 4.3-39.8 4.3-27.3 13.3-44.7 26.8-51.9a31 31 0 0 1 14.7-3.5c6.8 0 14.3 2 22.4 5.7 23.8 11.1 36 36.7 46.7 59.3v.1l5 10.4c5.5 11 10.7 21.4 16 30.5 8.2 14.5 16.1 29.2 23.7 44 9.1 17 18.8 33.6 29 50 10.4 17 21.1 34.7 30.3 52.6a374.6 374.6 0 0 1 36 119.4c3.1 21.6-.2 31.6-6.2 49.6l-1 3c-3 9.2-4.7 19-6.2 28.4-1.5 8.6-3 17.5-5.5 26-1.8 6-2.6 12.6-3.4 18.8-.6 6.5-1.8 12.8-3.5 19.1-5.5 18-13 36.3-20.2 54h-.1a943 943 0 0 0-13.8 35 604.6 604.6 0 0 0-31.6 122.2c-13 90.3-29.6 163.2-114.6 213-60.6 35.4-107.1 42.8-135.5 42.8l-.1.1Zm132.6-982.4c-5 0-9.8 1.2-14 3.4-16.1 8.6-23 32.3-26 50.7-2 13.1-3.1 26.6-4.2 39.6-1 12.8-2 26-4 38.8-3.5 22.2-11.9 39.9-20.7 58.5-2.3 5-4.7 10-7 15.3-6.9 15-13 30.2-18.8 44.8-7 17.4-14.2 35.3-22.6 53.3-4 8.7-8.7 17.4-13.2 25.8l-.1.3c-9.9 18.6-20 37.8-25 58.3-4.7 19.5-9.5 39.6-15.3 60-7 27.2-12 54.8-15.3 82.6l-1.2 8.5c-1.3 9-3.9 17.5-6.4 25.6-2.6 8.7-5.1 17-5.7 24.7-.5 7.8 1.1 16.1 2.8 25 1.9 9.5 3.8 19.3 3.3 29.9-1.3 32.7-11.3 66.7-21 99.7-6.6 22.7-13 44.2-16.6 65.1-.4 2.8-1.7 8-4 17.2-3.4 13.4-13.5 54.2-14.3 69.4 0 .3.1.6.3.8 5.8 4.8 6.4 12.3 6.7 16 .4 5.4 1 12 9.9 22.6a123 123 0 0 0 53 37.2c14.3 5 30.2 7.7 47 7.7 28 0 74.3-7.5 134.6-42.7 84.3-49.4 100.8-122 113.7-211.8 5.7-39.5 16-79.7 31.8-122.6 4.2-11.7 9.1-23.6 13.8-35a607.2 607.2 0 0 0 20.2-53.8c1.7-6.2 2.8-12.5 3.4-18.9.8-6.3 1.7-12.9 3.5-19.1 2.6-8.4 4-17.2 5.4-25.7 1.6-9.6 3.2-19.4 6.3-28.7l1-3c6.2-18.4 9.2-27.6 6.2-48.9a372.8 372.8 0 0 0-35.8-118.9c-9.2-17.8-20-35.4-30.3-52.5-10.2-16.4-20-33-29-50.1-7.6-14.4-15.3-29.2-23.7-43.8-5.4-9.2-10.5-19.6-16-30.6l-5-10.6c-10.7-22.3-22.7-47.6-46-58.5a52 52 0 0 0-21.7-5.6Z"/>
      <path d="M741 1992.8c22-13 29.3-34.2 37-56.5l.1-.4 2.6-7.3c10.8-30.2 12.8-62.5 14.8-93.7 1.2-18.5 2.4-37.7 5.4-56.4 1.6-9.8 3-19.5 4.5-29.8 5.2-36.7 10.7-74.7 24-107.8 8.5-21.3 19-42 29.3-62 5.4-10.6 11-21.5 16.2-32.4 11.7-24.4 26.1-48 40.1-70.8v-.1c5-8 10.1-16.4 15-24.6 9.3-15.7 9.7-22.6 2.3-39.2a305 305 0 0 0-27-45.7 377.9 377.9 0 0 1-22.5-36.2 239.3 239.3 0 0 0-56.3-71.6c-28-23.7-49-64-65.9-96.3l-3.2-6.1c-4.6-8.8-7-18.2-9.6-27.2a119 119 0 0 0-10-27.9c-18.2-32.3-46-55.2-73-77.4a613.3 613.3 0 0 1-37.8-33l-4.3-4.2c-8.8-8.8-17-17-29.2-20.9-3.2-1-5.8-1.5-8-1.5a8 8 0 0 0-5.3 1.6c-4.3 3.5-3.6 12.9-2.4 22.2 1 8 2.8 15.5 4.6 22.8 3.2 12.6 6.4 25.7 4.6 40.2a716.6 716.6 0 0 1-13.4 75.8c-5.7 23.6-18.1 68.7-37 104.4-5.2 9.9-11.1 20-16.8 29.8-13 20.9-24 42.8-33.3 65.5-7.2 19.3-12 39.4-16.7 58.8a731 731 0 0 1-10.3 40c-3.5 11.4-4.7 23.5-5.9 35.1-1.6 15.3-3.2 31.1-9.8 45.3-8.2 17.7-9.4 34.5-10.6 52.2-.4 6.2-.8 12.6-1.6 19.2-2 17.6-5.6 35.8-9 53.5v.1l-3.8 18.8a444 444 0 0 0-6.4 68.8c-.4 10.9-2.4 22-4.3 32.8v.1c-1.6 8.3-3.1 17-4 25.4h-1.5c.8-8.8 2.3-17.4 3.9-25.8 1.9-10.7 3.9-21.8 4.3-32.6.5-29.5 3.8-58.9 10.1-87.7v-.2c3.8-17.7 6.9-35.5 9.1-53.4.8-6.6 1.2-13 1.6-19.1 1.2-18 2.4-34.8 10.8-52.8 6.5-14 8-29 9.6-44.8 1.2-11.7 2.5-23.8 6-35.4 4-13.2 7.1-26.8 10.3-39.9 4.6-19.4 9.4-39.6 16.7-59a445.3 445.3 0 0 1 33.4-65.6c5.7-9.9 11.5-20 16.8-29.9 18.8-35.6 31.1-80.4 36.8-104 5.3-22 10-48.2 13.4-75.6 1.8-14.2-1.3-26.6-4.5-39.7-1.9-7.3-3.7-15-4.7-23-1.2-9.7-2-19.5 3-23.6 1.6-1.3 3.6-2 6.3-2 2.4 0 5.2.6 8.5 1.6 12.6 4 21 12.4 29.8 21.3l4.4 4.3c12 11.6 25.1 22.4 37.8 32.9 27 22.2 55 45.3 73.2 77.8 5 9 7.7 18.8 10.3 28.3 2.4 9 5 18.1 9.4 26.8l3.2 6c16.8 32.3 37.8 72.5 65.5 96a240.8 240.8 0 0 1 56.6 72 376.8 376.8 0 0 0 22.4 36 305.7 305.7 0 0 1 27.2 46c7.5 16.8 7 24.8-2.4 40.7-5 8.3-10 16.7-15 24.7a777.4 777.4 0 0 0-40 70.7c-5.3 11-10.9 21.9-16.2 32.4a743.6 743.6 0 0 0-29.3 61.8c-13.2 33-18.6 70.9-23.9 107.5-1.5 10.4-2.9 20-4.5 29.8-3 18.6-4.2 37.8-5.4 56.3-2 31.3-4 63.7-14.8 94-1 2.6-1.8 5-2.6 7.6l-.1.2c-7.9 22.6-15.2 44-37.7 57.3l-.9-1.4v.1ZM395.9 870.6c-16 0-43.5-14.6-65.6-27.3l-5.3-3c-54.2-29.6-111-57.2-166-83.8l-.4-.2c-48.5-23.5-98.7-47.8-147-73.5-56.2-29.9-118.2-47.5-178.2-64.6-44.2-12.6-89.9-25.5-133-43.3-17-7-34-14.5-50.6-22.4-31.7-14.4-64.5-29.4-98.8-39.6-14.1-4.2-28.3-8.1-42-11.9h-.2c-53.6-14.7-104.2-28.6-151.6-59.9l.9-1.4c47.2 31.2 97.7 45 151.2 59.7h.2c13.7 3.8 27.9 7.7 42 12 33.9 10.9 67 24.1 99 39.6 16.4 7.6 33.4 15.3 50.5 22.4 43.1 17.7 88.7 30.7 132.8 43.3 60.1 17 122.3 34.7 178.5 64.6 48.5 25.8 98.8 50.2 147.4 73.7a3908.2 3908.2 0 0 1 171 86.6l.4.3c13 7.4 47.3 27.1 64.7 27.1a13 13 0 0 0 7.7-2c3.5-2.8 4.2-8.3 2-16.6-10.1-37.7-53.6-76.2-66.6-87L336 761c-30-25-58.4-48.6-81.5-80.3l-2.8-3.8c-49.7-68-96.6-132.4-60.3-220.6 19.9-48.2 37.2-99.8 54-149.6l.1-.4c8.5-25 17.2-50.8 26.1-76l7.4-19.9.1-.2c9.7-25.3 20.6-53.9 21.1-78 .7-31-20.5-48.1-45-67.9l-1.5-1.1a445.3 445.3 0 0 0-47.3-31.7c-9.4-5.8-19.2-11.7-28.5-18a298.3 298.3 0 0 1-41.5-36h-.1c-6.9-6.7-13.9-13.6-21.3-20.2-27.6-24.5-60-45.7-91.5-66.2-64.7-42.2-131.5-85.8-161.7-161.3-2-4.8-4-10.6-6.4-17.4l-.2-.3c-12.5-35.1-31.4-88-63.2-94.4l.3-1.6c32.7 6.6 51.8 60 64.5 95.4 2.3 6.5 4.5 12.7 6.5 17.7 30 75 96.6 118.5 161 160.5 31.7 20.6 64.3 41.8 92 66.4 7.4 6.6 14.5 13.5 21.3 20.2A285 285 0 0 0 179 12.1c9.3 6.3 19 12.2 28.4 18 16 9.8 32.6 19.9 47.5 31.8l1.4 1.1c23.9 19.2 46.4 37.3 45.8 69.3-.6 24.3-11.6 53-21.3 78.4v.3c-2.6 6.6-5 13.2-7.5 19.9-9 25.3-17.7 51.2-26.1 76.3a2441.8 2441.8 0 0 1-54.1 149.7c-36 87.4 10.7 151.3 60.1 219l2.8 3.8c23 31.6 51.3 55.1 81.2 80l2.8 2.4c13.2 11 57 49.7 67.1 87.9 2.4 9 1.6 15-2.5 18.2-2 1.6-5 2.4-8.6 2.4h-.1Z"/>
      <path d="M494.4 927.1c-14.4 0-34-10-48.4-17.3-5-2.6-9.4-4.8-12.7-6.2-18-7.4-35.4-15.3-52.3-23h-.3a970 970 0 0 0-83.7-35c-69.5-24.4-135-61-198.3-96.3-62.8-35-127.6-71.2-196.4-95.6-52-18.4-101-30-153-42.4l-36.2-8.6c-30.6-7.5-59.1-21-86.7-34a499.6 499.6 0 0 0-77.1-31.3c-22.4-6-45-11.5-67.8-16.3a827 827 0 0 1-103.8-27.7l.5-1.5c34 12.3 69.4 20.1 103.6 27.7 22.4 4.9 45.5 10 67.9 16.2 26.8 7.5 52.5 19.7 77.3 31.4 27.6 13 56.1 26.5 86.5 33.9l36.2 8.6c52 12.4 101.1 24 153.1 42.5 69 24.4 133.8 60.6 196.6 95.7 63.3 35.3 128.7 71.8 198.1 96.1 28.8 10 55.5 22.2 83.9 35h.1c17.3 8 34.8 15.7 52.4 23.1 3.3 1.4 7.7 3.6 12.8 6.2 14.2 7.3 33.6 17.2 47.7 17.2 3 0 5.5-.4 7.7-1.3 4.1-1.7 7-4.7 8.6-9.4.8-2.4 3.3-9.4-36.5-61l-.8-1c-1-1.1-1.6-2-2.2-2.8a607.8 607.8 0 0 0-126.6-124.4l-.1-.2c-53.7-41.6-109.3-84.6-122.1-155.4-8.8-48.8 11.8-103 30-150.8 4.4-11.5 8.6-23 12.7-34.7 28.2-82.3 48-145.9 64.2-206.1l2-7.4c7.8-28.8 15.3-56-1.8-84.4C309 53 276.6 36.4 242.3 19l-6.2-3.2a295 295 0 0 1-88-69.5A587.4 587.4 0 0 0 25.6-159.5C17.2-165 8.2-170-.4-175c-17.5-10-35.7-20.3-50.2-35A142 142 0 0 1-74-245.4c-5.3-11-11.9-21.5-19.5-31.1a358.4 358.4 0 0 0-29.7-30c-26.9-25-52.3-48.7-50.2-95.3h1.6c-2 46 22 68.2 49.7 94 10 9.4 20.3 19 29.9 30.2 8.2 9.7 14 20.7 19.6 31.4A141 141 0 0 0-49.4-211C-35.1-196.6-17-186.3.4-176.4h.1c8.7 5 17.6 10 26 15.6a589 589 0 0 1 122.8 106c26 29.6 54.7 52.2 87.5 69l6.2 3.2c33.1 16.9 67.3 34.3 87.9 68.4 17.5 29 10 56.5 2 85.6l-.4 1.5-1.6 5.9c-16.2 60.3-36 124-64.2 206.2-3.8 11.1-8.2 22.5-12.7 34.5l-.1.2c-18.1 47.7-38.7 101.6-29.9 150 12.7 70.2 68 113 121.5 154.4l.7.5 26.5 20.8A610 610 0 0 1 474.8 852l.7.9c12 15.6 40.3 52.2 36.7 62.4-1.8 5.1-5 8.6-9.5 10.4-2.4 1-5.2 1.4-8.3 1.4ZM633.6 1713c-4.4 0-8.7-.5-12.9-1.6-18.9-5.2-32.1-21.4-37.3-45.6-2-8.9-2.6-18.5-2-28.5 2-37 20.2-75 36.2-108.6l6.9-14.5c18.8-40.4 39.8-87.3 51.1-133 1.2-4.7 1.9-10.3 2.6-16.3 2.2-17.8 4.7-37.9 20-44.5 4.1-1.7 8-2.6 11.6-2.6 2.6 0 5.2.5 7.5 1.4 10.6 4.5 16.1 18.6 20.5 30 19 48.8 13.5 97 5.6 146.3l-3.3 21c-8.4 56-20 132.6-57 172.3-14.6 15.7-32.2 24.3-49.5 24.3v-.1Zm76.2-393.6c-3.4 0-7 .8-11 2.5-14.4 6.2-16.8 25.9-19 43.2-.7 6-1.4 11.7-2.6 16.4-11.3 46-32.4 93-51.3 133.4-2 4.5-4.3 9.1-6.6 14l-.2.5c-16 33.4-34 71.2-36.1 108-.6 10 0 19.3 2 28 5 23.6 17.9 39.4 36.2 44.4 3.8 1 8 1.6 12.1 1.6 16.8 0 34.6-8.6 48.6-23.7 36.7-39.4 48.2-115.7 56.6-171.4l3.3-21c7.9-49 13.4-97-5.5-145.5-4.3-11-9.6-24.9-19.7-29-2-1-4.4-1.4-6.8-1.4Z"/>
      <path d="M644.5 1676.2a36 36 0 0 1-19-5.5c-10.7-6.8-17.8-19.7-20-36.3-.8-6.6-.8-13.7 0-21.7 3-27.2 15.7-55.5 27-80.4l.3-.7 6.2-14c15-35.1 28.3-70.9 40.1-107.2 1.2-4 2-8.6 3-13.5 2.6-13.5 5.4-28.7 16-35.4a27 27 0 0 1 13.7-4.8c1.6 0 3.1.3 4.6.8 6 2.2 10.8 8.9 14.9 21.2 7 20.7 7.2 39.8 6.5 57.4-1.3 26-4.6 51.8-10 77.2l-3.7 20.5v.3c-7.9 44.7-18.6 105.9-48.6 130.3l-3.7 2.6c-4.4 3-9.3 5.4-14.4 7a39.3 39.3 0 0 1-12.9 2.2Zm67.3-317.9c-3.7 0-7.9 1.5-12.8 4.6-10 6.3-12.8 21.2-15.3 34.3-1 5-1.8 9.6-3 13.6a1307 1307 0 0 1-40.2 107.5l-6.4 14.3-.1.4c-11.2 24.8-23.9 52.9-26.8 79.8a90 90 0 0 0 0 21.4c2 16 8.9 28.6 19.2 35.2a33.6 33.6 0 0 0 18.1 5.1c4.1 0 8.3-.7 12.5-2a53 53 0 0 0 17.5-9.4c29.6-24 40.2-84.9 48-129.3a476 476 0 0 1 3.8-20.8c6-31 9-54.8 9.9-77 .7-17.4.4-36.3-6.4-56.8-4-11.8-8.4-18.2-14-20.2-1.3-.5-2.6-.7-4-.7Z"/>
      <path d="M655.8 1642.2h-2c-16.5-1-27-16.9-26-39.3.1-4.3.8-8.9 2-15 3.5-16.8 10.5-34 17.3-50.6v-.1l6.4-16c3.7-9.7 7-19.9 10.1-29.7l.1-.2c3.9-12 7.9-24.6 12.8-36.6l6.1-15.1c1.4-3.4 2.5-7.2 3.7-11.2 2-9.3 6-18 11.8-25.7 4.2-4.5 9.6-9.8 14.8-9.8l1.6.2c4.3 1 7.7 6 10.2 15.1 5.1 18 3 33.2.6 50.7l-.2 2a671 671 0 0 1-12.8 70.2 329 329 0 0 0-3.8 17.2c-6.7 32.5-17 81.6-40.8 91.7a35.2 35.2 0 0 1-12 2.3l.1-.1Zm57-247.7c-3.4 0-7.7 3-13.5 9.3-5.5 7.4-9.4 16-11.4 25-1.2 4-2.4 7.9-3.8 11.4l-6.1 15.2c-5 12-9 24.4-12.8 36.5-4.9 15.6-10.4 31-16.6 46a304 304 0 0 0-17.2 50.4 77 77 0 0 0-2 14.7c-1 21.5 9 36.5 24.5 37.6h1.9c3.9 0 7.7-.8 11.3-2.1 23-9.8 33.2-58.4 39.8-90.6 1.4-6.7 2.6-12.4 3.8-17.2 5-20.6 9-42.9 12.8-70l.2-2c2.4-17.4 4.5-32.3-.5-50-2.4-8.6-5.4-13.1-9-14a6 6 0 0 0-1.4-.2Z"/>
      <path d="M662.2 1615.8c-1.6 0-3.2-.3-4.8-1a18 18 0 0 1-7.4-4.8c-9.6-10.3-5-29.2 0-38.8a224.8 224.8 0 0 0 18-46.5c1.6-5.4 2.6-11 3.7-16.3 2-14 7-27.6 14.5-39.7 4.7-8 9-15.5 11.8-24.7 2-6.7 7-18.1 12.5-18.1h.2c3.2 0 5.7 4 7.5 11.8 3.4 14.5 0 26.6-3.5 39.4l-2.3 8.6c-1.8 7.3-3.4 14.7-5 21.8-3 13.7-6 27.9-10.7 41.4-1.1 3.7-2.2 7.4-3.1 11.2-5 19-12.5 47.5-25.6 54.3-1.9 1-3.8 1.4-5.8 1.4Zm48.3-188.3c-3.8 0-8.4 8.8-11 17-2.7 9.4-7.4 17.3-11.9 25l-5.5 9.7c-5 9.3-6.8 19-8.8 29.5-4 22-11.4 43.4-21.8 63.3-5 9.1-9.3 27.2-.3 36.9 1.8 2 4 3.4 6.8 4.4 1.4.6 2.8.9 4.2.9 1.7 0 3.4-.5 5-1.3 12.5-6.4 20.2-35.7 24.8-53.2 1-3.8 2-7.6 3.2-11.3 4.6-13.5 7.6-27.6 10.6-41.2 1.6-7.2 3.2-14.6 5-21.9l2.3-8.7c3.7-13 6.8-24.4 3.5-38.5-1.5-6.8-3.7-10.5-6-10.6h-.1Zm696.8 601.5c-13 0-26-2.4-38.7-7a578.4 578.4 0 0 1-56-25.8c-26.5-13.9-54-26-82-36.3-11.7-4.3-23.5-15.1-33-23.8l-4.3-4c-35-31.4-37-37.1-44.2-79.7a247 247 0 0 1-1.8-59.7l.8-15.8c.8-19.8-3.4-39.6-7.4-58.9-3.4-16-7-32.5-7.5-49-.7-17.2 7-82.2 20.9-98.2a33.4 33.4 0 0 1 26.5-11.7c28.2 0 64.4 25.7 88.4 42.7 5.8 4.1 10.7 7.6 14.7 10.2 40.3 25.8 91.2 40.7 140.5 55 18.5 5.5 36 10.6 53 16.3 31.2 10.4 52.3 32 72.7 52.8a336 336 0 0 0 32 30l8.1 6.2c27.3 20.9 58.3 44.5 44.7 81-7.9 21.3-29.3 37.5-50 53.2-14.7 11.1-30 22.6-39.6 35.5a286.3 286.3 0 0 1-53 54.3c-28.3 21.7-56.8 32.7-84.9 32.7h.1Zm-226.6-468.3a32 32 0 0 0-25.4 11.2c-7.5 8.7-12.8 33.1-15.3 46.9a281 281 0 0 0-5.2 50.1c.6 16.4 4 32.9 7.5 48.8 4 19.3 8.3 39.3 7.5 59.3l-.8 15.8c-1.1 19.9-2 37 1.7 59.3 7.2 42.8 9 47.6 43.7 78.8l4 3.7.3.3c9.4 8.6 21 19.3 32.4 23.5a687 687 0 0 1 82.1 36.4c19 9.5 36.9 18.4 56 25.6 12.1 4.6 25 7 38 7 27.8 0 56.2-11 84.3-32.5a289 289 0 0 0 52.3-53.8c9.8-13.2 25.1-24.7 39.9-35.9 20.5-15.5 41.8-31.6 49.5-52.4 13.2-35.4-17.3-58.6-44.2-79.1v-.1c-2.8-2-5.5-4.1-8-6.1-11.6-9-22.1-19.8-32.3-30.2-20.3-20.8-41.2-42.2-72-52.5-17-5.6-34.5-10.7-53-16.1-49.3-14.5-100.4-29.4-140.9-55.4-4-2.5-9-6-14.8-10.2-23.8-16.8-59.7-42.4-87.3-42.4Z"/>
      <path d="M1404 2005.2a98.2 98.2 0 0 1-30.5-5c-20-7.1-39.7-15.5-58.7-25.2l-7.2-3.4c-15.2-7.2-33.6-15.8-55.5-24.7-10-4-19.6-13.2-28.2-21.3l-4-3.7c-29.1-27.1-32-34-39.3-70-4-19.6-4.2-34.8-4.4-52.3v-.7l-.2-11.7c-.4-17.7-5.7-35.7-10.8-53.2-3.7-12.7-7.6-25.9-9.6-39-2.6-17 2.2-70.7 16.9-86.5a31.3 31.3 0 0 1 24-9.9c24.6 0 55.5 20.4 75.9 33.9 5.1 3.4 9.6 6.3 13.3 8.5 36.1 21.7 80.6 35.3 123.6 48.5 15.2 4.7 29.6 9 43.6 13.8l5.6 2c23.9 9.6 41.2 26.4 58 42.7a314 314 0 0 0 33.6 29.3l.4.2c23.8 17.8 50.8 38 41.4 69-5.5 18-21.8 32.1-37.6 45.8-11.7 9.3-22.1 20-31 32.1a234.7 234.7 0 0 1-41.9 48.2c-25 21.6-51 32.5-77.3 32.5l-.1.1Zm-207.3-405c-9.5 0-17.2 3.2-23 9.4-13.9 14.9-19 69.3-16.5 85.1 2 13 5.9 26.1 9.6 38.8 5.9 17.4 9.5 35.4 10.8 53.7l.2 12.2v.1c.2 17.5.4 32.6 4.4 52.2 7.2 35.9 9.8 42 38.9 69l3.8 3.6.2.2c8.4 8 17.9 17 27.7 21 21.8 8.8 40.3 17.4 55.5 24.6l7.1 3.4c20 9.6 38.8 18.6 58.6 25.1 10 3.3 20 5 30 5 26 0 51.7-11 76.6-32.4 15.8-14 29.7-30 41.2-47.6 7.8-12 19.8-22.4 31.5-32.5 15.6-13.5 31.7-27.5 37-45 9.1-30-17.4-49.8-40.7-67.2l-6.3-4.7c-10-7.6-19.1-16.4-28-25-16.6-16.2-33.8-32.8-57.4-42.3l-5.5-2c-13.8-4.7-28.2-9.1-43.4-13.8h-.2c-43-13.2-87.6-26.9-124-48.6-3.7-2.2-8-5.2-13.2-8.5l-.1-.1c-20.3-13.4-50.8-33.6-74.8-33.6v-.1Z"/>
      <path d="M1400 1981.3a80 80 0 0 1-21.7-3 360.9 360.9 0 0 1-57.3-22.3l-23.2-10.9-.4-.2-23.6-11c-8.6-4-16.7-12-23.9-19l-3.2-3.2c-24-23.2-27.4-31-34.6-60.1-3.5-14.7-6-29.7-7.2-44.8l-1-9.3c-1.8-15.2-8-30.4-14.6-46.5-4-9.8-8.2-20-11.2-30-4.8-16.3-2.9-58.5 12.4-74.3 0 .3 0 .6.3.9l.5.5c-14.3 15.4-16.3 57-11.7 72.4 3 10 7.2 20.1 11.2 30a186.8 186.8 0 0 1 14.6 46.8l1 9.1v.2c1.7 15 3.1 28 7.2 44.6 7.2 29.2 10.4 36.2 34.2 59.3l2.9 2.8.3.3c7.1 7 15.1 15 23.4 18.8 8.1 3.7 15.9 7.4 23.3 11l.8.3 23.2 10.8c19 8.8 37.5 17 57 22.3 7 1.9 14.2 2.8 21.3 2.8 45 0 81.1-38 100-73.6 5.5-10.6 14.1-19.8 22.4-28.7 11.3-12.2 22-23.6 25-37.9 5-24.7-17.6-41-37.6-55.5l-4.2-3c-8.3-6.1-16-13-23.5-19.8-14.5-13-29.5-26.6-49.4-34.5l-4.5-1.7c-10.7-3.7-21.9-7.4-33.7-11.2-37.1-12-75.4-24.5-107.6-42.2-3.4-1.8-7.4-4.2-11.6-6.7-17.9-10.7-42.4-25.4-62.4-25.4-8 0-14.9 2.5-20.2 7.3l-.5-.6a1 1 0 0 0-.7-.3h-.2c5.7-5.3 13-8 21.5-8 20.5 0 45.2 14.8 63.3 25.6 4 2.4 8.2 4.9 11.5 6.7 32.1 17.6 70.4 30 107.3 42h.2c12.8 4.2 25.6 8.5 38.3 13 20 8 35.2 21.6 49.8 34.8 7.4 6.7 15.2 13.6 23.3 19.6l4.3 3c20.4 14.8 43.5 31.5 38.2 57.2-3 14.7-13.9 26.4-25.4 38.7-8.7 8.4-16.1 18-22.2 28.4-19 36-55.7 74.5-101.4 74.5Z"/>
      <path d="M1396.1 1957.8c-4.2 0-8.6-.4-13-1.2a216.5 216.5 0 0 1-48.7-16.2c-11.4-5-23.4-11-39-19.6a90.4 90.4 0 0 1-19.7-17l-2.3-2.4a101.3 101.3 0 0 1-29.9-50.2c-4-12.5-6.5-22.8-9.3-33.6l-.2-.9-2.3-8.9c-3.1-11.8-10.4-24.2-18.1-37.3-4.5-7.7-9.2-15.6-13-23.5-7.6-15.7-8-48 8.7-63 5.2-4.7 12-7 20-7 17 0 36.9 10.3 51.5 17.8l8.8 4.4c29 14 63.2 26 93.5 36.6l25.2 9c15.3 6.9 29.5 16 42 27.2 6 4.8 12.2 9.8 18.6 14.2l1.7 1.2c17.1 11.8 36.6 25.1 35.6 45.5-.6 11.8-7 21.8-13.8 32.5-4.7 7.3-9.6 15-12.8 23.7-12.8 34.2-43.5 68.7-83.4 68.7h-.1Zm-166.6-279.3c-7.7 0-14.1 2.3-19 6.7-16 14.2-15.6 46.2-8.4 61.1 3.7 7.8 8.4 15.7 12.9 23.4a160.1 160.1 0 0 1 18.3 37.7l2.5 9.8c2.7 10.8 5.4 21 9.3 33.5a99 99 0 0 0 29.5 49.6l2.3 2.4c5.8 6 12.4 13 19.3 16.7 12.7 7 25.6 13.6 38.9 19.5a215.5 215.5 0 0 0 48.4 16.1c4.2.8 8.4 1.2 12.6 1.2 39.2 0 69.4-34 82-67.7 3.2-8.8 8.1-16.5 12.9-24 6.7-10.5 13-20.3 13.5-31.7 1-19.5-18-32.5-34.8-44l-1.8-1.3c-6.4-4.4-12.6-9.4-18.7-14.2-12.5-10-25.4-20.5-41.5-27l-3.7-1.4-21.3-7.5h-.2c-30.3-10.7-64.6-22.7-93.6-36.7l-8.8-4.5c-15.4-7.9-34.5-17.7-50.6-17.7Z"/>
      <path d="M1391.9 1935c-1.3 0-2.6 0-3.9-.2-12.6-.7-25.7-4-40.2-10a164.5 164.5 0 0 1-30.8-17c-6-4.5-11.3-9.8-16-15.6l-1-1a133 133 0 0 1-25-40.3c-4.4-10.1-9.3-21-15.4-32.7a51 51 0 0 0-7.1-9.6c-2-2.3-4.2-4.8-6-7.5a65 65 0 0 1-5.6-12.3 84.4 84.4 0 0 0-4-9.4c-1.4-2.7-3-5.4-4.7-8.3-9-15.1-20.2-34-4-48.8a26 26 0 0 1 16-6.5l3.6-.2c13 0 26.4 5.5 38 10.4h.2l5.5 2.3 13 5.1c26.5 10.7 54 21.8 75.8 30l2.8 1.1c13.3 5.4 24.7 13 35.8 20.4l12.2 8c15 9.3 28.9 19 32.1 33 2.4 10.2.2 19.6-2.4 30.6-1 4.7-2.2 9.5-3.1 14.9a84.3 84.3 0 0 1-21.4 43.9 60.4 60.4 0 0 1-44.4 19.7Zm-144-217.7a48 48 0 0 0-3.6.1c-6.2.5-11.2 2.5-15 6-15.2 14.1-4.9 31.5 4.3 46.9l4.7 8.3c1.7 3.1 3 6.4 4.1 9.6 1.6 4.3 3.2 8.3 5.5 12 1.7 2.7 3.7 5 5.8 7.3 2.6 3.1 5.3 6.2 7.3 10 6.1 11.6 11 22.6 15.5 32.8a130.8 130.8 0 0 0 24.8 39.8l.9 1c4.7 5.4 10 11.4 15.7 15.3 9.5 6.7 19.8 12.4 30.5 17 13.7 6 28.4 9.3 43.4 10a59 59 0 0 0 43.5-19.4c11-12 18.2-26.9 20.8-42.9.9-5.4 2-10.2 3.1-15 2.6-10.7 4.8-20 2.5-29.8-3.2-13.5-16.7-22.8-31.4-32l-12.3-8c-12-8.5-24.7-15.6-38.2-21.3-22-8.3-49.4-19.4-76-30l-12.9-5.2-5.2-2.1-.5-.3c-12.2-5-24.7-10.1-37.3-10.1Z"/>
      <path d="M1384.8 1913.7c-8 0-16-1.6-23.5-4.4-21.8-8-34.1-27.2-46.1-45.7l-6.8-10.3a134.1 134.1 0 0 0-25.5-27c-6.8-6-9.4-13.7-11.8-21.2a61.4 61.4 0 0 0-6.6-15 58.8 58.8 0 0 0-5.6-6.7c-5.1-5.6-11-11.8-10.2-19 .3-3.1 1.7-5.7 4-7.5 3.2-2.5 7.9-3.7 14.4-3.7 4.2 0 8.4.5 11.2.9 20.4 2.7 39.4 11.6 57.7 20.3 6.3 2.9 13.3 6.2 20.1 9.1l1.9.8c2.2 1 4.5 1.8 6.8 2.7 32.6 13.1 66.3 26.7 71 66.6a53 53 0 0 1-18.7 49.3c-9 7-20.2 10.8-32.3 10.8Zm-117.5-158.9c-6.2 0-10.8 1.1-13.5 3.3a9 9 0 0 0-3.5 6.5c-.7 6.4 4.9 12.4 9.8 17.7 2.2 2.4 4.3 4.7 5.8 6.9 3.2 4.8 5 10.2 6.7 15.4a41.6 41.6 0 0 0 11.4 20.4c9.5 8.3 18 16 25.8 27.4l6.8 10.3c11.8 18.3 24 37.2 45.2 45a66.5 66.5 0 0 0 23 4.3 50 50 0 0 0 31.3-10.4 51.6 51.6 0 0 0 18.1-47.8c-4.6-39-37.8-52.3-70-65.3l-6.8-2.7-2-.8c-6.6-2.8-13.4-6-20-9.1-18.3-8.7-37.2-17.6-57.3-20.2-2.3-.3-6.5-.9-10.8-.9Z"/>
      <path d="M1123.5 1862.6c-9.4-26.4-6.7-57.2-4.2-87a327 327 0 0 0 0-75.3c-4.4-46.7-9-94.8-4.6-140.1 1.6-16.1 9.7-47.6 29.4-51.2.9-.2 2-.3 3.2-.3 14.7 0 45.2 12.5 54.2 16.4a143 143 0 0 1 35.3 24.2c8.7 7.3 17.6 14.9 27.8 20.4a456.3 456.3 0 0 0 56.6 24l17.2 6.6c25.2 9.8 51.3 18.6 76.4 27.1 33.4 11.3 67.9 23 100.8 37.1l-.6 1.5c-33-14.1-67.4-25.7-100.6-37-25.2-8.5-51.3-17.3-76.5-27.2l-17.2-6.5a455.8 455.8 0 0 1-56.9-24.2c-10-5.9-19.4-12.8-28-20.6a143 143 0 0 0-35-24c-8.9-3.8-39.1-16.2-53.4-16.2-1.1 0-2.2 0-3 .2-18.7 3.5-26.6 34.1-28.1 49.8-4.4 45.1.2 93.2 4.6 139.8l1.8 18.8c1.6 18-.1 37.7-1.8 56.8-2.5 29.6-5.2 60.2 4.1 86.3l-1.5.6Zm566-192.9c-37.4-15.5-80-20.5-121.4-25.3-24-2.8-49-5.7-71.9-10.7-33-7-64-23.4-94-39.2-18.7-9.8-38-19.9-57.2-27.5-71.6-28.3-145.5-84.3-225.9-171.3-27-29.3-51.1-66.5-74.4-102.5v-.1c-7.4-11.3-14.2-21.9-21.1-32.2-15-22.3-31.8-44.6-48-66.2l-.2-.2c-14.4-19.2-29.4-39-43.2-59a725.3 725.3 0 0 0-49.9-62.1 660.9 660.9 0 0 1-55.8-70.9 271.1 271.1 0 0 0-37.5-44l-.1-.2c-3.4-3.5-7-7.1-10.6-11a550.7 550.7 0 0 1-64.7-85.4c-14.6-23.5-17.4-51-20.1-77.8-1-9.7-2-19.6-3.6-29.2-9-55.5-32.2-97-69.5-149.9-4.2-6-8.7-12-13-17.8-21.6-29-44-59-45.3-95.7-.8-23 7.4-45.5 15.4-67.4 7.5-20.3 15.1-41.3 15.9-63l.4-12.7c1.7-50.4 2.8-86.8 34.4-130.8a614.4 614.4 0 0 1 47.7-56.6c17.1-18.8 34.9-38.2 50.3-60 21.6-30.7 97-131.5 164.9-149.2l.4 1.6c-53.6 14-119.7 85.7-164 148.5-15.4 22-33.2 41.3-50.3 60.1l-.1.1a638.3 638.3 0 0 0-47.6 56.4c-31.3 43.7-32.4 79.9-34 130L595 361c-.8 22-8.5 43.1-16 63.5-8.3 22.7-16.1 44.2-15.3 66.9 1.3 36 23.5 66 45 94.8 4.4 5.9 8.9 12 13 17.8 37.4 53 60.8 94.8 69.9 150.6 1.5 9.6 2.5 19.5 3.5 29.2 2.7 26.6 5.5 54 20 77.2a548.3 548.3 0 0 0 64.3 85.1l10.8 11c14 14.3 26.1 26.6 37.7 44.4a645.5 645.5 0 0 0 55.7 70.7c17 19.7 34.7 40.1 50 62.3 13.7 19.9 28.6 39.7 43 58.9 16.4 21.7 33.3 44 48.3 66.5 7 10.3 13.8 21 21.1 32.2v.1c23.3 36 47.4 73.1 74.3 102.3 80.3 86.8 154 142.7 225.4 170.9 19.3 7.6 38.6 17.8 57.2 27.6 30 15.7 60.8 32 93.7 39 22.9 5 47.6 7.9 71.6 10.7 41.5 4.8 84.4 9.8 122 25.4l-.7 1.5v.1Z"/>
      <path d="M1108 1912.2c-6.2-13.6-10.6-28-15-42.1-2.8-9-5.6-18.3-8.9-27.1-31.4-85.2-17.3-156-1-237.9l2.2-10.7c1.3-6.7 2.8-13.6 4.4-20.8v-.2c10-46.1 21.4-98.4-2.9-139.6a376 376 0 0 0-39.5-52c-17.4-20.2-35.3-41.1-47.3-65.7-38.8-79.7-98.3-162.8-145.7-226.4a1321 1321 0 0 0-43.5-53.8c-12-14-24.2-28.6-35.8-43.5-17-22-34-44.3-50.8-66.6a6036.9 6036.9 0 0 0-50.8-66.6c-11.8-15.1-14-29-16.2-43.7a168 168 0 0 0-4.7-23c-8.2-28.8-27-55.4-45.2-81.2a731 731 0 0 1-15.7-22.8c-12.1-18.5-24-37.1-35.7-55.9l-.1-.2c-11.3-18.4-23-36.6-34.8-54.6-19-28.9-45.1-68.4-36-109.7a128 128 0 0 1 19.3-40.7c4.5-7.2 9.2-14.5 12.9-22.5 13.5-28.8 19.7-60 25.6-90.1 6-30.4 12.2-61.7 25.9-90.6a385 385 0 0 1 38.5-60.8c16.8-23.2 34.2-47.2 45.3-76 4.8-12.5 9-25.5 13.1-38a567.2 567.2 0 0 1 19-52.7c3.9-8.7 8.3-17.3 12.5-25.6 11.1-22.2 22.7-45.1 25.5-71.3l1.6.2c-2.8 26.4-14.5 49.5-25.7 71.8-4.2 8.3-8.5 16.9-12.3 25.6-7.5 16.9-13.3 34.9-19 52.3-4 12.9-8.4 25.6-13.2 38.2-11.1 29.1-28.6 53.2-45.5 76.4a384 384 0 0 0-38.4 60.6c-13.6 28.7-19.7 60-25.7 90.1-6 30.3-12.1 61.6-25.7 90.6-3.8 8-8.5 15.4-13 22.6-8 12.7-15.6 24.7-19 40.3-9 40.6 16.8 79.8 35.7 108.4 12.2 18.5 23.7 37 34.9 54.9 11.4 18.2 23 37 35.6 55.9 5 7.5 10.2 14.9 15.7 22.7 18.3 26 37.1 52.7 45.5 81.6 2.4 8.3 3.6 15.9 4.7 23.2 2.3 15.2 4.3 28.2 15.8 43 17.2 22 34.2 44.6 50.7 66.4l.2.2c16.8 22.3 33.7 44.5 50.8 66.6 11.6 14.7 23.5 29.2 35.7 43.5 14.6 17.4 29.7 35.3 43.6 53.8 47.5 63.7 107 147 145.9 226.7 11.9 24.4 29.7 45.2 47 65.4 14.8 16.2 28 33.7 39.8 52.2 24.6 41.7 13.1 94.4 3 140.8v.1l-4.4 20.9-2.1 10.6c-17 85-30.4 152.2.9 237 3.2 9 6.1 18.2 8.9 27.2 4 14.3 9.1 28.3 15 42l-1.5.7-.1-.1Z"/>
    </g>
  </g>
  <defs>
    <clipPath id="a">
      <path fill="#fff" d="M0 0h1723.5v2248H0z"/>
    </clipPath>
  </defs>
</svg>
